<svg aria-roledescription="flowchart-v2" role="graphics-document document" viewBox="-43 -8 670.5 1181" style="max-width: 670.5px;" xmlns="http://www.w3.org/2000/svg" width="670.5" id="svg" xmlns:xlink="http://www.w3.org/1999/xlink" height="1181"><style>#svg{font-family:"trebuchet ms",verdana,arial,sans-serif;font-size:16px;fill:#333;}#svg .error-icon{fill:#552222;}#svg .error-text{fill:#552222;stroke:#552222;}#svg .edge-thickness-normal{stroke-width:2px;}#svg .edge-thickness-thick{stroke-width:3.5px;}#svg .edge-pattern-solid{stroke-dasharray:0;}#svg .edge-pattern-dashed{stroke-dasharray:3;}#svg .edge-pattern-dotted{stroke-dasharray:2;}#svg .marker{fill:#333333;stroke:#333333;}#svg .marker.cross{stroke:#333333;}#svg svg{font-family:"trebuchet ms",verdana,arial,sans-serif;font-size:16px;}#svg .label{font-family:"trebuchet ms",verdana,arial,sans-serif;color:#333;}#svg .cluster-label text{fill:#333;}#svg .cluster-label span,#svg p{color:#333;}#svg .label text,#svg span,#svg p{fill:#333;color:#333;}#svg .node rect,#svg .node circle,#svg .node ellipse,#svg .node polygon,#svg .node path{fill:#ECECFF;stroke:#9370DB;stroke-width:1px;}#svg .flowchart-label text{text-anchor:middle;}#svg .node .katex path{fill:#000;stroke:#000;stroke-width:1px;}#svg .node .label{text-align:center;}#svg .node.clickable{cursor:pointer;}#svg .arrowheadPath{fill:#333333;}#svg .edgePath .path{stroke:#333333;stroke-width:2.0px;}#svg .flowchart-link{stroke:#333333;fill:none;}#svg .edgeLabel{background-color:#e8e8e8;text-align:center;}#svg .edgeLabel rect{opacity:0.5;background-color:#e8e8e8;fill:#e8e8e8;}#svg .labelBkg{background-color:rgba(232, 232, 232, 0.5);}#svg .cluster rect{fill:#ffffde;stroke:#aaaa33;stroke-width:1px;}#svg .cluster text{fill:#333;}#svg .cluster span,#svg p{color:#333;}#svg div.mermaidTooltip{position:absolute;text-align:center;max-width:200px;padding:2px;font-family:"trebuchet ms",verdana,arial,sans-serif;font-size:12px;background:hsl(80, 100%, 96.2745098039%);border:1px solid #aaaa33;border-radius:2px;pointer-events:none;z-index:100;}#svg .flowchartTitleText{text-anchor:middle;font-size:18px;fill:#333;}#svg .today{display:none;}#svg .label foreignObject{overflow:visible;}#svg :root{--mermaid-font-family:"trebuchet ms",verdana,arial,sans-serif;}</style><g><marker orient="auto" markerHeight="12" markerWidth="12" markerUnits="userSpaceOnUse" refY="5" refX="6" viewBox="0 0 10 10" class="marker flowchart" id="svg_flowchart-pointEnd"><path style="stroke-width: 1; stroke-dasharray: 1, 0;" class="arrowMarkerPath" d="M 0 0 L 10 5 L 0 10 z"></path></marker><marker orient="auto" markerHeight="12" markerWidth="12" markerUnits="userSpaceOnUse" refY="5" refX="4.5" viewBox="0 0 10 10" class="marker flowchart" id="svg_flowchart-pointStart"><path style="stroke-width: 1; stroke-dasharray: 1, 0;" class="arrowMarkerPath" d="M 0 5 L 10 10 L 10 0 z"></path></marker><marker orient="auto" markerHeight="11" markerWidth="11" markerUnits="userSpaceOnUse" refY="5" refX="11" viewBox="0 0 10 10" class="marker flowchart" id="svg_flowchart-circleEnd"><circle style="stroke-width: 1; stroke-dasharray: 1, 0;" class="arrowMarkerPath" r="5" cy="5" cx="5"></circle></marker><marker orient="auto" markerHeight="11" markerWidth="11" markerUnits="userSpaceOnUse" refY="5" refX="-1" viewBox="0 0 10 10" class="marker flowchart" id="svg_flowchart-circleStart"><circle style="stroke-width: 1; stroke-dasharray: 1, 0;" class="arrowMarkerPath" r="5" cy="5" cx="5"></circle></marker><marker orient="auto" markerHeight="11" markerWidth="11" markerUnits="userSpaceOnUse" refY="5.2" refX="12" viewBox="0 0 11 11" class="marker cross flowchart" id="svg_flowchart-crossEnd"><path style="stroke-width: 2; stroke-dasharray: 1, 0;" class="arrowMarkerPath" d="M 1,1 l 9,9 M 10,1 l -9,9"></path></marker><marker orient="auto" markerHeight="11" markerWidth="11" markerUnits="userSpaceOnUse" refY="5.2" refX="-1" viewBox="0 0 11 11" class="marker cross flowchart" id="svg_flowchart-crossStart"><path style="stroke-width: 2; stroke-dasharray: 1, 0;" class="arrowMarkerPath" d="M 1,1 l 9,9 M 10,1 l -9,9"></path></marker><g class="root"><g class="clusters"></g><g class="edgePaths"><path marker-end="url(#svg_flowchart-pointEnd)" style="fill:none;" class="edge-thickness-normal edge-pattern-solid flowchart-link LS-Q LE-P" id="L-Q-P-0" d="M292.5,34L292.5,38.167C292.5,42.333,292.5,50.667,292.5,58.117C292.5,65.567,292.5,72.133,292.5,75.417L292.5,78.7"></path><path marker-end="url(#svg_flowchart-pointEnd)" style="fill:none;" class="edge-thickness-normal edge-pattern-solid flowchart-link LS-P LE-G" id="L-P-G-0" d="M292.5,139L292.5,143.167C292.5,147.333,292.5,155.667,292.5,163.117C292.5,170.567,292.5,177.133,292.5,180.417L292.5,183.7"></path><path marker-end="url(#svg_flowchart-pointEnd)" style="fill:none;" class="edge-thickness-normal edge-pattern-solid flowchart-link LS-G LE-RN" id="L-G-RN-0" d="M292.5,223L292.5,227.167C292.5,231.333,292.5,239.667,292.566,247.2C292.632,254.734,292.764,261.467,292.83,264.834L292.896,268.201"></path><path marker-end="url(#svg_flowchart-pointEnd)" style="fill:none;" class="edge-thickness-normal edge-pattern-solid flowchart-link LS-RN LE-EX" id="L-RN-EX-0" d="M326.485,388.015L335.904,399.429C345.323,410.843,364.162,433.672,373.581,451.702C383,469.733,383,482.967,383,489.583L383,496.2"></path><path marker-end="url(#svg_flowchart-pointEnd)" style="fill:none;" class="edge-thickness-normal edge-pattern-solid flowchart-link LS-EX LE-MK" id="L-EX-MK-0" d="M434.714,537.5L456.262,545C477.81,552.5,520.905,567.5,542.452,580.033C564,592.567,564,602.633,564,607.667L564,612.7"></path><path marker-end="url(#svg_flowchart-pointEnd)" style="fill:none;" class="edge-thickness-normal edge-pattern-solid flowchart-link LS-MK LE-RP" id="L-MK-RP-0" d="M564,673L564,678.917C564,684.833,564,696.667,560.881,711.803C557.763,726.94,551.526,745.38,548.407,754.6L545.289,763.82"></path><path marker-end="url(#svg_flowchart-pointEnd)" style="fill:none;" class="edge-thickness-normal edge-pattern-solid flowchart-link LS-RP LE-RL" id="L-RP-RL-0" d="M519.25,932.5L519.167,938.333C519.083,944.167,518.917,955.833,510.952,967.24C502.988,978.647,487.226,989.793,479.345,995.367L471.464,1000.94"></path><path marker-end="url(#svg_flowchart-pointEnd)" style="fill:none;" class="edge-thickness-normal edge-pattern-solid flowchart-link LS-RP LE-RN" id="L-RP-RN-0" d="M494.91,768.84L491.341,758.784C487.773,748.727,480.637,728.613,477.068,708.057C473.5,687.5,473.5,666.5,473.5,645.5C473.5,624.5,473.5,603.5,473.5,582.5C473.5,561.5,473.5,540.5,473.5,519.5C473.5,498.5,473.5,477.5,451.857,453.939C430.215,430.377,386.93,404.255,365.287,391.193L343.644,378.132"></path><path marker-end="url(#svg_flowchart-pointEnd)" style="fill:none;" class="edge-thickness-normal edge-pattern-solid flowchart-link LS-RL LE-ADD" id="L-RL-ADD-0" d="M428.25,1059L428.25,1065.083C428.25,1071.167,428.25,1083.333,396.244,1095.226C364.238,1107.118,300.227,1118.737,268.221,1124.546L236.215,1130.355"></path><path marker-end="url(#svg_flowchart-pointEnd)" style="fill:none;" class="edge-thickness-normal edge-pattern-solid flowchart-link LS-RL LE-RN" id="L-RL-RN-0" d="M369.92,1004L357.017,997.917C344.113,991.833,318.307,979.667,305.403,952C292.5,924.333,292.5,881.167,292.5,838C292.5,794.833,292.5,751.667,292.5,719.583C292.5,687.5,292.5,666.5,292.5,645.5C292.5,624.5,292.5,603.5,292.5,582.5C292.5,561.5,292.5,540.5,292.5,519.5C292.5,498.5,292.5,477.5,292.571,462.05C292.641,446.6,292.783,436.7,292.854,431.75L292.924,426.799"></path><path marker-end="url(#svg_flowchart-pointEnd)" style="fill:none;" class="edge-thickness-normal edge-pattern-solid flowchart-link LS-ADD LE-RN" id="L-ADD-RN-0" d="M82.657,1131L63.048,1125.083C43.438,1119.167,4.219,1107.333,-15.39,1090.75C-35,1074.167,-35,1052.833,-35,1031.5C-35,1010.167,-35,988.833,-35,956.583C-35,924.333,-35,881.167,-35,838C-35,794.833,-35,751.667,-35,719.583C-35,687.5,-35,666.5,-35,645.5C-35,624.5,-35,603.5,-35,582.5C-35,561.5,-35,540.5,-35,519.5C-35,498.5,-35,477.5,9.585,452.202C54.171,426.904,143.341,397.308,187.927,382.51L232.512,367.712"></path><path marker-end="url(#svg_flowchart-pointEnd)" style="fill:none;" class="edge-thickness-normal edge-pattern-solid flowchart-link LS-RN LE-GEN" id="L-RN-GEN-0" d="M243.188,371.688L213.823,385.823C184.459,399.959,125.729,428.229,96.365,447.398C67,466.567,67,476.633,67,481.667L67,486.7"></path><path marker-end="url(#svg_flowchart-pointEnd)" style="fill:none;stroke-width:2px;stroke-dasharray:3;" class="edge-thickness-normal edge-pattern-dotted flowchart-link LS-EX LE-RL2" id="L-EX-RL2-0" d="M327.5,533.83L296.083,541.942C264.667,550.053,201.833,566.277,170.417,584.888C139,603.5,139,624.5,139,645.5C139,666.5,139,687.5,139,719.583C139,751.667,139,794.833,139,838C139,881.167,139,924.333,139,950.95C139,977.567,139,987.633,139,992.667L139,997.7"></path><path marker-end="url(#svg_flowchart-pointEnd)" style="fill:none;" class="edge-thickness-normal edge-pattern-solid flowchart-link LS-RL2 LE-ADD" id="L-RL2-ADD-0" d="M139,1060L139,1065.917C139,1071.833,139,1083.667,139,1094.617C139,1105.567,139,1115.633,139,1120.667L139,1125.7"></path><path marker-end="url(#svg_flowchart-pointEnd)" style="fill:none;" class="edge-thickness-normal edge-pattern-solid flowchart-link LS-GEN LE-A" id="L-GEN-A-0" d="M67,547L67,552.917C67,558.833,67,570.667,67,583.367C67,596.067,67,609.633,67,616.417L67,623.2"></path></g><g class="edgeLabels"><g class="edgeLabel"><g transform="translate(0, 0)" class="label"><foreignObject height="0" width="0"><div style="display: inline-block; white-space: nowrap;" xmlns="http://www.w3.org/1999/xhtml"><span class="edgeLabel"></span></div></foreignObject></g></g><g class="edgeLabel"><g transform="translate(0, 0)" class="label"><foreignObject height="0" width="0"><div style="display: inline-block; white-space: nowrap;" xmlns="http://www.w3.org/1999/xhtml"><span class="edgeLabel"></span></div></foreignObject></g></g><g class="edgeLabel"><g transform="translate(0, 0)" class="label"><foreignObject height="0" width="0"><div style="display: inline-block; white-space: nowrap;" xmlns="http://www.w3.org/1999/xhtml"><span class="edgeLabel"></span></div></foreignObject></g></g><g transform="translate(383, 456.5)" class="edgeLabel"><g transform="translate(-16, -10.5)" class="label"><foreignObject height="21" width="32"><div style="display: inline-block; white-space: nowrap;" xmlns="http://www.w3.org/1999/xhtml"><span class="edgeLabel">非空</span></div></foreignObject></g></g><g class="edgeLabel"><g transform="translate(0, 0)" class="label"><foreignObject height="0" width="0"><div style="display: inline-block; white-space: nowrap;" xmlns="http://www.w3.org/1999/xhtml"><span class="edgeLabel"></span></div></foreignObject></g></g><g class="edgeLabel"><g transform="translate(0, 0)" class="label"><foreignObject height="0" width="0"><div style="display: inline-block; white-space: nowrap;" xmlns="http://www.w3.org/1999/xhtml"><span class="edgeLabel"></span></div></foreignObject></g></g><g transform="translate(518.75, 967.5)" class="edgeLabel"><g transform="translate(-8, -10.5)" class="label"><foreignObject height="21" width="16"><div style="display: inline-block; white-space: nowrap;" xmlns="http://www.w3.org/1999/xhtml"><span class="edgeLabel">是</span></div></foreignObject></g></g><g transform="translate(473.5, 582.5)" class="edgeLabel"><g transform="translate(-8, -10.5)" class="label"><foreignObject height="21" width="16"><div style="display: inline-block; white-space: nowrap;" xmlns="http://www.w3.org/1999/xhtml"><span class="edgeLabel">否</span></div></foreignObject></g></g><g transform="translate(428.25, 1095.5)" class="edgeLabel"><g transform="translate(-32, -10.5)" class="label"><foreignObject height="21" width="64"><div style="display: inline-block; white-space: nowrap;" xmlns="http://www.w3.org/1999/xhtml"><span class="edgeLabel">追加节点</span></div></foreignObject></g></g><g transform="translate(292.5, 645.5)" class="edgeLabel"><g transform="translate(-32, -10.5)" class="label"><foreignObject height="21" width="64"><div style="display: inline-block; white-space: nowrap;" xmlns="http://www.w3.org/1999/xhtml"><span class="edgeLabel">无需追加</span></div></foreignObject></g></g><g class="edgeLabel"><g transform="translate(0, 0)" class="label"><foreignObject height="0" width="0"><div style="display: inline-block; white-space: nowrap;" xmlns="http://www.w3.org/1999/xhtml"><span class="edgeLabel"></span></div></foreignObject></g></g><g transform="translate(67, 456.5)" class="edgeLabel"><g transform="translate(-8, -10.5)" class="label"><foreignObject height="21" width="16"><div style="display: inline-block; white-space: nowrap;" xmlns="http://www.w3.org/1999/xhtml"><span class="edgeLabel">空</span></div></foreignObject></g></g><g transform="translate(139, 708.5)" class="edgeLabel"><g transform="translate(-117.5, -10.5)" class="label"><foreignObject height="21" width="235"><div style="display: inline-block; white-space: nowrap;" xmlns="http://www.w3.org/1999/xhtml"><span class="edgeLabel">节点失败且开启ReplanOnFailed</span></div></foreignObject></g></g><g class="edgeLabel"><g transform="translate(0, 0)" class="label"><foreignObject height="0" width="0"><div style="display: inline-block; white-space: nowrap;" xmlns="http://www.w3.org/1999/xhtml"><span class="edgeLabel"></span></div></foreignObject></g></g><g class="edgeLabel"><g transform="translate(0, 0)" class="label"><foreignObject height="0" width="0"><div style="display: inline-block; white-space: nowrap;" xmlns="http://www.w3.org/1999/xhtml"><span class="edgeLabel"></span></div></foreignObject></g></g></g><g class="nodes"><g transform="translate(292.5, 17)" data-id="Q" data-node="true" id="flowchart-Q-0" class="node default default flowchart-label"><rect height="34" width="64" y="-17" x="-32" ry="0" rx="0" style="" class="basic label-container"></rect><g transform="translate(-24.5, -9.5)" style="" class="label"><rect></rect><foreignObject height="19" width="49"><div style="display: inline-block; white-space: nowrap;" xmlns="http://www.w3.org/1999/xhtml"><span class="nodeLabel">Query</span></div></foreignObject></g></g><g transform="translate(292.5, 111.5)" data-id="P" data-node="true" id="flowchart-P-1" class="node default default flowchart-label"><rect height="55" width="113" y="-27.5" x="-56.5" ry="0" rx="0" style="fill:#fff4e6;stroke:#f5a623;" class="basic label-container"></rect><g transform="translate(-49, -20)" style="" class="label"><rect></rect><foreignObject height="40" width="98"><div style="display: inline-block; white-space: nowrap;" xmlns="http://www.w3.org/1999/xhtml"><span class="nodeLabel">Planner LLM<br/>一次成图</span></div></foreignObject></g></g><g transform="translate(292.5, 206)" data-id="G" data-node="true" id="flowchart-G-3" class="node default default flowchart-label"><rect height="34" width="98" y="-17" x="-49" ry="0" rx="0" style="" class="basic label-container"></rect><g transform="translate(-41.5, -9.5)" style="" class="label"><rect></rect><foreignObject height="19" width="83"><div style="display: inline-block; white-space: nowrap;" xmlns="http://www.w3.org/1999/xhtml"><span class="nodeLabel">TaskGraph</span></div></foreignObject></g></g><g transform="translate(292.5, 347)" data-id="RN" data-node="true" id="flowchart-RN-5" class="node default default flowchart-label"><polygon style="" transform="translate(-74,74)" class="label-container" points="74,0 148,-74 74,-148 0,-74"></polygon><g transform="translate(-49.5, -9.5)" style="" class="label"><rect></rect><foreignObject height="19" width="99"><div style="display: inline-block; white-space: nowrap;" xmlns="http://www.w3.org/1999/xhtml"><span class="nodeLabel">ReadyNodes</span></div></foreignObject></g></g><g transform="translate(383, 519.5)" data-id="EX" data-node="true" id="flowchart-EX-7" class="node default default flowchart-label"><rect height="36" width="111" y="-18" x="-55.5" ry="0" rx="0" style="" class="basic label-container"></rect><g transform="translate(-48, -10.5)" style="" class="label"><rect></rect><foreignObject height="21" width="96"><div style="display: inline-block; white-space: nowrap;" xmlns="http://www.w3.org/1999/xhtml"><span class="nodeLabel">并行执行本层</span></div></foreignObject></g></g><g transform="translate(564, 645.5)" data-id="MK" data-node="true" id="flowchart-MK-9" class="node default default flowchart-label"><rect height="55" width="111" y="-27.5" x="-55.5" ry="0" rx="0" style="" class="basic label-container"></rect><g transform="translate(-48, -20)" style="" class="label"><rect></rect><foreignObject height="40" width="96"><div style="display: inline-block; white-space: nowrap;" xmlns="http://www.w3.org/1999/xhtml"><span class="nodeLabel">MarkDone<br/>推进下游入度</span></div></foreignObject></g></g><g transform="translate(518.75, 838)" data-id="RP" data-node="true" id="flowchart-RP-11" class="node default default flowchart-label"><polygon style="" transform="translate(-94,94)" class="label-container" points="94,0 188,-94 94,-188 0,-94"></polygon><g transform="translate(-59, -20)" style="" class="label"><rect></rect><foreignObject height="40" width="118"><div style="display: inline-block; white-space: nowrap;" xmlns="http://www.w3.org/1999/xhtml"><span class="nodeLabel">ReplanEnabled<br/>且额度未耗尽?</span></div></foreignObject></g></g><g transform="translate(428.25, 1031.5)" data-id="RL" data-node="true" id="flowchart-RL-13" class="node default default flowchart-label"><rect height="55" width="133" y="-27.5" x="-66.5" ry="0" rx="0" style="fill:#ffe8f0;stroke:#e91e63;" class="basic label-container"></rect><g transform="translate(-59, -20)" style="" class="label"><rect></rect><foreignObject height="40" width="118"><div style="display: inline-block; white-space: nowrap;" xmlns="http://www.w3.org/1999/xhtml"><span class="nodeLabel">Replanner LLM<br/>看观察决定追加</span></div></foreignObject></g></g><g transform="translate(139, 1148)" data-id="ADD" data-node="true" id="flowchart-ADD-17" class="node default default flowchart-label"><rect height="34" width="184" y="-17" x="-92" ry="0" rx="0" style="" class="basic label-container"></rect><g transform="translate(-84.5, -9.5)" style="" class="label"><rect></rect><foreignObject height="19" width="169"><div style="display: inline-block; white-space: nowrap;" xmlns="http://www.w3.org/1999/xhtml"><span class="nodeLabel">TaskGraph.AddNodes</span></div></foreignObject></g></g><g transform="translate(67, 519.5)" data-id="GEN" data-node="true" id="flowchart-GEN-23" class="node default default flowchart-label"><rect height="55" width="134" y="-27.5" x="-67" ry="0" rx="0" style="fill:#fff4e6;stroke:#f5a623;" class="basic label-container"></rect><g transform="translate(-59.5, -20)" style="" class="label"><rect></rect><foreignObject height="40" width="119"><div style="display: inline-block; white-space: nowrap;" xmlns="http://www.w3.org/1999/xhtml"><span class="nodeLabel">Generator LLM<br/>合成答案</span></div></foreignObject></g></g><g transform="translate(139, 1031.5)" data-id="RL2" data-node="true" id="flowchart-RL2-25" class="node default default flowchart-label"><rect height="57" width="106" y="-28.5" x="-53" ry="0" rx="0" style="fill:#ffe8f0;stroke:#e91e63;" class="basic label-container"></rect><g transform="translate(-45.5, -21)" style="" class="label"><rect></rect><foreignObject height="42" width="91"><div style="display: inline-block; white-space: nowrap;" xmlns="http://www.w3.org/1999/xhtml"><span class="nodeLabel">局部 Replan<br/>补替代节点</span></div></foreignObject></g></g><g transform="translate(67, 645.5)" data-id="A" data-node="true" id="flowchart-A-29" class="node default default flowchart-label"><rect height="34" width="74" y="-17" x="-37" ry="0" rx="0" style="" class="basic label-container"></rect><g transform="translate(-29.5, -9.5)" style="" class="label"><rect></rect><foreignObject height="19" width="59"><div style="display: inline-block; white-space: nowrap;" xmlns="http://www.w3.org/1999/xhtml"><span class="nodeLabel">Answer</span></div></foreignObject></g></g></g></g></g></svg>