<svg aria-roledescription="stateDiagram" role="graphics-document document" viewBox="0 0 1074.25 659" style="max-width: 1074.25px;" class="statediagram" xmlns="http://www.w3.org/2000/svg" width="1074.25" id="svg" xmlns:xlink="http://www.w3.org/1999/xlink" height="659"><style>#svg{font-family:"trebuchet ms",verdana,arial,sans-serif;font-size:16px;fill:#333;}#svg .error-icon{fill:#552222;}#svg .error-text{fill:#552222;stroke:#552222;}#svg .edge-thickness-normal{stroke-width:2px;}#svg .edge-thickness-thick{stroke-width:3.5px;}#svg .edge-pattern-solid{stroke-dasharray:0;}#svg .edge-pattern-dashed{stroke-dasharray:3;}#svg .edge-pattern-dotted{stroke-dasharray:2;}#svg .marker{fill:#333333;stroke:#333333;}#svg .marker.cross{stroke:#333333;}#svg svg{font-family:"trebuchet ms",verdana,arial,sans-serif;font-size:16px;}#svg defs #statediagram-barbEnd{fill:#333333;stroke:#333333;}#svg g.stateGroup text{fill:#9370DB;stroke:none;font-size:10px;}#svg g.stateGroup text{fill:#333;stroke:none;font-size:10px;}#svg g.stateGroup .state-title{font-weight:bolder;fill:#131300;}#svg g.stateGroup rect{fill:#ECECFF;stroke:#9370DB;}#svg g.stateGroup line{stroke:#333333;stroke-width:1;}#svg .transition{stroke:#333333;stroke-width:1;fill:none;}#svg .stateGroup .composit{fill:white;border-bottom:1px;}#svg .stateGroup .alt-composit{fill:#e0e0e0;border-bottom:1px;}#svg .state-note{stroke:#aaaa33;fill:#fff5ad;}#svg .state-note text{fill:black;stroke:none;font-size:10px;}#svg .stateLabel .box{stroke:none;stroke-width:0;fill:#ECECFF;opacity:0.5;}#svg .edgeLabel .label rect{fill:#ECECFF;opacity:0.5;}#svg .edgeLabel .label text{fill:#333;}#svg .label div .edgeLabel{color:#333;}#svg .stateLabel text{fill:#131300;font-size:10px;font-weight:bold;}#svg .node circle.state-start{fill:#333333;stroke:#333333;}#svg .node .fork-join{fill:#333333;stroke:#333333;}#svg .node circle.state-end{fill:#9370DB;stroke:white;stroke-width:1.5;}#svg .end-state-inner{fill:white;stroke-width:1.5;}#svg .node rect{fill:#ECECFF;stroke:#9370DB;stroke-width:1px;}#svg .node polygon{fill:#ECECFF;stroke:#9370DB;stroke-width:1px;}#svg #statediagram-barbEnd{fill:#333333;}#svg .statediagram-cluster rect{fill:#ECECFF;stroke:#9370DB;stroke-width:1px;}#svg .cluster-label,#svg .nodeLabel{color:#131300;}#svg .statediagram-cluster rect.outer{rx:5px;ry:5px;}#svg .statediagram-state .divider{stroke:#9370DB;}#svg .statediagram-state .title-state{rx:5px;ry:5px;}#svg .statediagram-cluster.statediagram-cluster .inner{fill:white;}#svg .statediagram-cluster.statediagram-cluster-alt .inner{fill:#f0f0f0;}#svg .statediagram-cluster .inner{rx:0;ry:0;}#svg .statediagram-state rect.basic{rx:5px;ry:5px;}#svg .statediagram-state rect.divider{stroke-dasharray:10,10;fill:#f0f0f0;}#svg .note-edge{stroke-dasharray:5;}#svg .statediagram-note rect{fill:#fff5ad;stroke:#aaaa33;stroke-width:1px;rx:0;ry:0;}#svg .statediagram-note rect{fill:#fff5ad;stroke:#aaaa33;stroke-width:1px;rx:0;ry:0;}#svg .statediagram-note text{fill:black;}#svg .statediagram-note .nodeLabel{color:black;}#svg .statediagram .edgeLabel{color:red;}#svg #dependencyStart,#svg #dependencyEnd{fill:#333333;stroke:#333333;stroke-width:1;}#svg .statediagramTitleText{text-anchor:middle;font-size:18px;fill:#333;}#svg .today{display:none;}#svg .label foreignObject{overflow:visible;}#svg :root{--mermaid-font-family:"trebuchet ms",verdana,arial,sans-serif;}</style><g><defs><marker orient="auto" markerUnits="strokeWidth" markerHeight="14" markerWidth="20" refY="7" refX="19" id="svg_statediagram-barbEnd"><path d="M 19,7 L9,13 L14,7 L9,1 Z"></path></marker></defs><g class="root"><g class="clusters"></g><g class="edgePaths"><path marker-end="url(#svg_statediagram-barbEnd)" style="fill:none" class="edge-thickness-normal transition" id="edge0" d="M368.75,22L368.75,27.917C368.75,33.833,368.75,45.667,368.75,57.5C368.75,69.333,368.75,81.167,368.75,87.083L368.75,93"></path><path marker-end="url(#svg_statediagram-barbEnd)" style="fill:none" class="edge-thickness-normal transition" id="edge1" d="M410.25,118.857L444.333,126.131C478.417,133.404,546.583,147.952,580.667,161.143C614.75,174.333,614.75,186.167,614.75,192.083L614.75,198"></path><path marker-end="url(#svg_statediagram-barbEnd)" style="fill:none" class="edge-thickness-normal transition" id="edge2" d="M327.25,117.269L284.208,124.807C241.167,132.346,155.083,147.423,112.042,163.711C69,180,69,197.5,69,215C69,232.5,69,250,69,267.5C69,285,69,302.5,69,321.583C69,340.667,69,361.333,69,382C69,402.667,69,423.333,69,442.417C69,461.5,69,479,69,493.667C69,508.333,69,520.167,69,526.083L69,532"></path><path marker-end="url(#svg_statediagram-barbEnd)" style="fill:none" class="edge-thickness-normal transition" id="edge3" d="M69,566L69,571.917C69,577.833,69,589.667,148.921,602.565C228.842,615.464,388.684,629.427,468.605,636.409L548.527,643.391"></path><path marker-end="url(#svg_statediagram-barbEnd)" style="fill:none" class="edge-thickness-normal transition" id="edge4" d="M614.75,232L614.75,237.917C614.75,243.833,614.75,255.667,614.75,267.5C614.75,279.333,614.75,291.167,614.75,297.083L614.75,303"></path><path marker-end="url(#svg_statediagram-barbEnd)" style="fill:none" class="edge-thickness-normal transition" id="edge5" d="M650.258,337L665.923,344.5C681.589,352,712.919,367,742.405,382C771.891,397,799.532,412,813.353,419.5L827.173,427"></path><path marker-end="url(#svg_statediagram-barbEnd)" style="fill:none" class="edge-thickness-normal transition" id="edge6" d="M857.472,427L857.018,419.5C856.565,412,855.657,397,826.171,382C796.685,367,738.621,352,709.589,344.5L680.556,337"></path><path marker-end="url(#svg_statediagram-barbEnd)" style="fill:none" class="edge-thickness-normal transition" id="edge7" d="M897.23,427L914.317,419.5C931.403,412,965.577,397,929.747,380.978C893.917,364.957,788.083,347.913,735.167,339.392L682.25,330.87"></path><path marker-end="url(#svg_statediagram-barbEnd)" style="fill:none" class="edge-thickness-normal transition" id="edge8" d="M547.25,329.83L487.542,338.525C427.833,347.22,308.417,364.61,255.966,380.805C203.516,397,218.032,412,225.29,419.5L232.548,427"></path><path marker-end="url(#svg_statediagram-barbEnd)" style="fill:none" class="edge-thickness-normal transition" id="edge9" d="M249,461L249,466.917C249,472.833,249,484.667,256.325,496.5C263.651,508.333,278.302,520.167,285.627,526.083L292.952,532"></path><path marker-end="url(#svg_statediagram-barbEnd)" style="fill:none" class="edge-thickness-normal transition" id="edge10" d="M265.452,427L272.71,419.5C279.968,412,294.484,397,341.45,381.448C388.417,365.896,467.833,349.792,507.542,341.74L547.25,333.688"></path><path marker-end="url(#svg_statediagram-barbEnd)" style="fill:none" class="edge-thickness-normal transition" id="edge11" d="M345.086,532L355.905,526.083C366.724,520.167,388.362,508.333,399.181,493.667C410,479,410,461.5,410,442.417C410,423.333,410,402.667,434.768,384.833C459.536,367,509.073,352,533.841,344.5L558.609,337"></path><path marker-end="url(#svg_statediagram-barbEnd)" style="fill:none" class="edge-thickness-normal transition" id="edge12" d="M598.504,337L591.337,344.5C584.169,352,569.835,367,562.667,384.833C555.5,402.667,555.5,423.333,555.5,442.417C555.5,461.5,555.5,479,555.5,493.667C555.5,508.333,555.5,520.167,555.5,526.083L555.5,532"></path><path marker-end="url(#svg_statediagram-barbEnd)" style="fill:none" class="edge-thickness-normal transition" id="edge13" d="M555.5,566L555.5,571.917C555.5,577.833,555.5,589.667,555.5,601.5C555.5,613.333,555.5,625.167,555.5,631.083L555.5,637"></path><path marker-end="url(#svg_statediagram-barbEnd)" style="fill:none" class="edge-thickness-normal transition" id="edge14" d="M636,337L645.375,344.5C654.75,352,673.5,367,682.875,384.833C692.25,402.667,692.25,423.333,692.25,442.417C692.25,461.5,692.25,479,701.407,493.667C710.563,508.333,728.877,520.167,738.034,526.083L747.19,532"></path><path marker-end="url(#svg_statediagram-barbEnd)" style="fill:none" class="edge-thickness-normal transition" id="edge15" d="M858.5,461L858.5,466.917C858.5,472.833,858.5,484.667,848.921,496.5C839.341,508.333,820.183,520.167,810.603,526.083L801.024,532"></path><path marker-end="url(#svg_statediagram-barbEnd)" style="fill:none" class="edge-thickness-normal transition" id="edge16" d="M773.5,566L773.5,571.917C773.5,577.833,773.5,589.667,738.312,602.443C703.124,615.22,632.747,628.94,597.559,635.8L562.371,642.661"></path></g><g class="edgeLabels"><g transform="translate(368.75, 57.5)" class="edgeLabel"><g transform="translate(-41.5, -10.5)" class="label"><rect height="21" width="83" ry="0" rx="0"></rect><foreignObject height="21" width="83"><div style="display: inline-block; white-space: nowrap;" xmlns="http://www.w3.org/1999/xhtml"><span class="edgeLabel">query 到达</span></div></foreignObject></g></g><g transform="translate(614.75, 162.5)" class="edgeLabel"><g transform="translate(-32, -10.5)" class="label"><rect height="21" width="64" ry="0" rx="0"></rect><foreignObject height="21" width="64"><div style="display: inline-block; white-space: nowrap;" xmlns="http://www.w3.org/1999/xhtml"><span class="edgeLabel">初图生成</span></div></foreignObject></g></g><g transform="translate(69, 320)" class="edgeLabel"><g transform="translate(-32, -10.5)" class="label"><rect height="21" width="64" ry="0" rx="0"></rect><foreignObject height="21" width="64"><div style="display: inline-block; white-space: nowrap;" xmlns="http://www.w3.org/1999/xhtml"><span class="edgeLabel">无需工具</span></div></foreignObject></g></g><g class="edgeLabel"><g transform="translate(0, 0)" class="label"><rect height="0" width="0" ry="0" rx="0"></rect><foreignObject height="0" width="0"><div style="display: inline-block; white-space: nowrap;" xmlns="http://www.w3.org/1999/xhtml"><span class="edgeLabel"></span></div></foreignObject></g></g><g transform="translate(614.75, 267.5)" class="edgeLabel"><g transform="translate(-60, -10.5)" class="label"><rect height="21" width="120" ry="0" rx="0"></rect><foreignObject height="21" width="120"><div style="display: inline-block; white-space: nowrap;" xmlns="http://www.w3.org/1999/xhtml"><span class="edgeLabel">取 ReadyNodes</span></div></foreignObject></g></g><g transform="translate(744.25, 382)" class="edgeLabel"><g transform="translate(-32, -10.5)" class="label"><rect height="21" width="64" ry="0" rx="0"></rect><foreignObject height="21" width="64"><div style="display: inline-block; white-space: nowrap;" xmlns="http://www.w3.org/1999/xhtml"><span class="edgeLabel">本层完成</span></div></foreignObject></g></g><g transform="translate(854.75, 382)" class="edgeLabel"><g transform="translate(-58.5, -20)" class="label"><rect height="40" width="117" ry="0" rx="0"></rect><foreignObject height="40" width="117"><div style="display: inline-block; white-space: nowrap;" xmlns="http://www.w3.org/1999/xhtml"><span class="edgeLabel">追加节点<br/>replanUsed++</span></div></foreignObject></g></g><g transform="translate(999.75, 382)" class="edgeLabel"><g transform="translate(-66.5, -10.5)" class="label"><rect height="21" width="133" ry="0" rx="0"></rect><foreignObject height="21" width="133"><div style="display: inline-block; white-space: nowrap;" xmlns="http://www.w3.org/1999/xhtml"><span class="edgeLabel">无追加,继续下一层</span></div></foreignObject></g></g><g transform="translate(189, 382)" class="edgeLabel"><g transform="translate(-48, -10.5)" class="label"><rect height="21" width="96" ry="0" rx="0"></rect><foreignObject height="21" width="96"><div style="display: inline-block; white-space: nowrap;" xmlns="http://www.w3.org/1999/xhtml"><span class="edgeLabel">节点重试耗尽</span></div></foreignObject></g></g><g transform="translate(249, 496.5)" class="edgeLabel"><g transform="translate(-80, -10.5)" class="label"><rect height="21" width="160" ry="0" rx="0"></rect><foreignObject height="21" width="160"><div style="display: inline-block; white-space: nowrap;" xmlns="http://www.w3.org/1999/xhtml"><span class="edgeLabel">ReplanOnFailed 开启</span></div></foreignObject></g></g><g transform="translate(309, 382)" class="edgeLabel"><g transform="translate(-52, -10.5)" class="label"><rect height="21" width="104" ry="0" rx="0"></rect><foreignObject height="21" width="104"><div style="display: inline-block; white-space: nowrap;" xmlns="http://www.w3.org/1999/xhtml"><span class="edgeLabel">标 Failed 继续</span></div></foreignObject></g></g><g transform="translate(410, 444)" class="edgeLabel"><g transform="translate(-40, -10.5)" class="label"><rect height="21" width="80" ry="0" rx="0"></rect><foreignObject height="21" width="80"><div style="display: inline-block; white-space: nowrap;" xmlns="http://www.w3.org/1999/xhtml"><span class="edgeLabel">补替代节点</span></div></foreignObject></g></g><g transform="translate(555.5, 444)" class="edgeLabel"><g transform="translate(-68, -10.5)" class="label"><rect height="21" width="136" ry="0" rx="0"></rect><foreignObject height="21" width="136"><div style="display: inline-block; white-space: nowrap;" xmlns="http://www.w3.org/1999/xhtml"><span class="edgeLabel">ReadyNodes 为空</span></div></foreignObject></g></g><g transform="translate(555.5, 601.5)" class="edgeLabel"><g transform="translate(-32, -10.5)" class="label"><rect height="21" width="64" ry="0" rx="0"></rect><foreignObject height="21" width="64"><div style="display: inline-block; white-space: nowrap;" xmlns="http://www.w3.org/1999/xhtml"><span class="edgeLabel">合成答案</span></div></foreignObject></g></g><g transform="translate(692.25, 444)" class="edgeLabel"><g transform="translate(-30.5, -10.5)" class="label"><rect height="21" width="61" ry="0" rx="0"></rect><foreignObject height="21" width="61"><div style="display: inline-block; white-space: nowrap;" xmlns="http://www.w3.org/1999/xhtml"><span class="edgeLabel">ctx 取消</span></div></foreignObject></g></g><g transform="translate(858.5, 496.5)" class="edgeLabel"><g transform="translate(-30.5, -10.5)" class="label"><rect height="21" width="61" ry="0" rx="0"></rect><foreignObject height="21" width="61"><div style="display: inline-block; white-space: nowrap;" xmlns="http://www.w3.org/1999/xhtml"><span class="edgeLabel">ctx 取消</span></div></foreignObject></g></g><g transform="translate(773.5, 601.5)" class="edgeLabel"><g transform="translate(-32, -10.5)" class="label"><rect height="21" width="64" ry="0" rx="0"></rect><foreignObject height="21" width="64"><div style="display: inline-block; white-space: nowrap;" xmlns="http://www.w3.org/1999/xhtml"><span class="edgeLabel">中断恢复</span></div></foreignObject></g></g></g><g class="nodes"><g transform="translate(368.75, 15)" data-id="root_start" data-node="true" id="state-root_start-0" class="node default"><circle height="14" width="14" r="7" class="state-start"></circle></g><g transform="translate(368.75, 110)" data-id="Planning" data-node="true" id="state-Planning-2" class="node  statediagram-state undefined"><rect height="34" width="83" y="-17" x="-41.5" style="" class="basic label-container"></rect><g transform="translate(-34, -9.5)" style="" class="label"><rect></rect><foreignObject height="19" width="68"><div style="display: inline-block; white-space: nowrap;" xmlns="http://www.w3.org/1999/xhtml"><span class="nodeLabel">Planning</span></div></foreignObject></g></g><g transform="translate(614.75, 215)" data-id="Executing" data-node="true" id="state-Executing-4" class="node  statediagram-state undefined"><rect height="34" width="93" y="-17" x="-46.5" style="" class="basic label-container"></rect><g transform="translate(-39, -9.5)" style="" class="label"><rect></rect><foreignObject height="19" width="78"><div style="display: inline-block; white-space: nowrap;" xmlns="http://www.w3.org/1999/xhtml"><span class="nodeLabel">Executing</span></div></foreignObject></g></g><g transform="translate(69, 549)" data-id="DirectAnswer" data-node="true" id="state-DirectAnswer-3" class="node  statediagram-state undefined"><rect height="34" width="122" y="-17" x="-61" style="" class="basic label-container"></rect><g transform="translate(-53.5, -9.5)" style="" class="label"><rect></rect><foreignObject height="19" width="107"><div style="display: inline-block; white-space: nowrap;" xmlns="http://www.w3.org/1999/xhtml"><span class="nodeLabel">DirectAnswer</span></div></foreignObject></g></g><g transform="translate(555.5, 644)" data-id="root_end" data-node="true" id="state-root_end-16" class="node default"><circle height="14" width="14" r="7" class="state-start"></circle><circle height="10" width="10" r="5" class="state-end"></circle></g><g transform="translate(614.75, 320)" data-id="ExecutingLevel" data-node="true" id="state-ExecutingLevel-14" class="node  statediagram-state undefined"><rect height="34" width="135" y="-17" x="-67.5" style="" class="basic label-container"></rect><g transform="translate(-60, -9.5)" style="" class="label"><rect></rect><foreignObject height="19" width="120"><div style="display: inline-block; white-space: nowrap;" xmlns="http://www.w3.org/1999/xhtml"><span class="nodeLabel">ExecutingLevel</span></div></foreignObject></g></g><g transform="translate(858.5, 444)" data-id="LayerReplan" data-node="true" id="state-LayerReplan-15" class="node  statediagram-state undefined"><rect height="34" width="114" y="-17" x="-57" style="" class="basic label-container"></rect><g transform="translate(-49.5, -9.5)" style="" class="label"><rect></rect><foreignObject height="19" width="99"><div style="display: inline-block; white-space: nowrap;" xmlns="http://www.w3.org/1999/xhtml"><span class="nodeLabel">LayerReplan</span></div></foreignObject></g></g><g transform="translate(249, 444)" data-id="NodeFailure" data-node="true" id="state-NodeFailure-10" class="node  statediagram-state undefined"><rect height="34" width="110" y="-17" x="-55" style="" class="basic label-container"></rect><g transform="translate(-47.5, -9.5)" style="" class="label"><rect></rect><foreignObject height="19" width="95"><div style="display: inline-block; white-space: nowrap;" xmlns="http://www.w3.org/1999/xhtml"><span class="nodeLabel">NodeFailure</span></div></foreignObject></g></g><g transform="translate(314, 549)" data-id="FailureReplan" data-node="true" id="state-FailureReplan-11" class="node  statediagram-state undefined"><rect height="34" width="122" y="-17" x="-61" style="" class="basic label-container"></rect><g transform="translate(-53.5, -9.5)" style="" class="label"><rect></rect><foreignObject height="19" width="107"><div style="display: inline-block; white-space: nowrap;" xmlns="http://www.w3.org/1999/xhtml"><span class="nodeLabel">FailureReplan</span></div></foreignObject></g></g><g transform="translate(555.5, 549)" data-id="Generating" data-node="true" id="state-Generating-13" class="node  statediagram-state undefined"><rect height="34" width="104" y="-17" x="-52" style="" class="basic label-container"></rect><g transform="translate(-44.5, -9.5)" style="" class="label"><rect></rect><foreignObject height="19" width="89"><div style="display: inline-block; white-space: nowrap;" xmlns="http://www.w3.org/1999/xhtml"><span class="nodeLabel">Generating</span></div></foreignObject></g></g><g transform="translate(773.5, 549)" data-id="Interrupted" data-node="true" id="state-Interrupted-16" class="node  statediagram-state undefined"><rect height="34" width="106" y="-17" x="-53" style="" class="basic label-container"></rect><g transform="translate(-45.5, -9.5)" style="" class="label"><rect></rect><foreignObject height="19" width="91"><div style="display: inline-block; white-space: nowrap;" xmlns="http://www.w3.org/1999/xhtml"><span class="nodeLabel">Interrupted</span></div></foreignObject></g></g></g></g></g></svg>