<svg aria-roledescription="flowchart-v2" role="graphics-document document" viewBox="-8 -8 183 1059" style="max-width: 183px;" xmlns="http://www.w3.org/2000/svg" width="183" id="svg" xmlns:xlink="http://www.w3.org/1999/xlink" height="1059"><style>#svg{font-family:"trebuchet ms",verdana,arial,sans-serif;font-size:16px;fill:#333;}#svg .error-icon{fill:#552222;}#svg .error-text{fill:#552222;stroke:#552222;}#svg .edge-thickness-normal{stroke-width:2px;}#svg .edge-thickness-thick{stroke-width:3.5px;}#svg .edge-pattern-solid{stroke-dasharray:0;}#svg .edge-pattern-dashed{stroke-dasharray:3;}#svg .edge-pattern-dotted{stroke-dasharray:2;}#svg .marker{fill:#333333;stroke:#333333;}#svg .marker.cross{stroke:#333333;}#svg svg{font-family:"trebuchet ms",verdana,arial,sans-serif;font-size:16px;}#svg .label{font-family:"trebuchet ms",verdana,arial,sans-serif;color:#333;}#svg .cluster-label text{fill:#333;}#svg .cluster-label span,#svg p{color:#333;}#svg .label text,#svg span,#svg p{fill:#333;color:#333;}#svg .node rect,#svg .node circle,#svg .node ellipse,#svg .node polygon,#svg .node path{fill:#ECECFF;stroke:#9370DB;stroke-width:1px;}#svg .flowchart-label text{text-anchor:middle;}#svg .node .katex path{fill:#000;stroke:#000;stroke-width:1px;}#svg .node .label{text-align:center;}#svg .node.clickable{cursor:pointer;}#svg .arrowheadPath{fill:#333333;}#svg .edgePath .path{stroke:#333333;stroke-width:2.0px;}#svg .flowchart-link{stroke:#333333;fill:none;}#svg .edgeLabel{background-color:#e8e8e8;text-align:center;}#svg .edgeLabel rect{opacity:0.5;background-color:#e8e8e8;fill:#e8e8e8;}#svg .labelBkg{background-color:rgba(232, 232, 232, 0.5);}#svg .cluster rect{fill:#ffffde;stroke:#aaaa33;stroke-width:1px;}#svg .cluster text{fill:#333;}#svg .cluster span,#svg p{color:#333;}#svg div.mermaidTooltip{position:absolute;text-align:center;max-width:200px;padding:2px;font-family:"trebuchet ms",verdana,arial,sans-serif;font-size:12px;background:hsl(80, 100%, 96.2745098039%);border:1px solid #aaaa33;border-radius:2px;pointer-events:none;z-index:100;}#svg .flowchartTitleText{text-anchor:middle;font-size:18px;fill:#333;}#svg .today{display:none;}#svg .label foreignObject{overflow:visible;}#svg :root{--mermaid-font-family:"trebuchet ms",verdana,arial,sans-serif;}</style><g><marker orient="auto" markerHeight="12" markerWidth="12" markerUnits="userSpaceOnUse" refY="5" refX="6" viewBox="0 0 10 10" class="marker flowchart" id="svg_flowchart-pointEnd"><path style="stroke-width: 1; stroke-dasharray: 1, 0;" class="arrowMarkerPath" d="M 0 0 L 10 5 L 0 10 z"></path></marker><marker orient="auto" markerHeight="12" markerWidth="12" markerUnits="userSpaceOnUse" refY="5" refX="4.5" viewBox="0 0 10 10" class="marker flowchart" id="svg_flowchart-pointStart"><path style="stroke-width: 1; stroke-dasharray: 1, 0;" class="arrowMarkerPath" d="M 0 5 L 10 10 L 10 0 z"></path></marker><marker orient="auto" markerHeight="11" markerWidth="11" markerUnits="userSpaceOnUse" refY="5" refX="11" viewBox="0 0 10 10" class="marker flowchart" id="svg_flowchart-circleEnd"><circle style="stroke-width: 1; stroke-dasharray: 1, 0;" class="arrowMarkerPath" r="5" cy="5" cx="5"></circle></marker><marker orient="auto" markerHeight="11" markerWidth="11" markerUnits="userSpaceOnUse" refY="5" refX="-1" viewBox="0 0 10 10" class="marker flowchart" id="svg_flowchart-circleStart"><circle style="stroke-width: 1; stroke-dasharray: 1, 0;" class="arrowMarkerPath" r="5" cy="5" cx="5"></circle></marker><marker orient="auto" markerHeight="11" markerWidth="11" markerUnits="userSpaceOnUse" refY="5.2" refX="12" viewBox="0 0 11 11" class="marker cross flowchart" id="svg_flowchart-crossEnd"><path style="stroke-width: 2; stroke-dasharray: 1, 0;" class="arrowMarkerPath" d="M 1,1 l 9,9 M 10,1 l -9,9"></path></marker><marker orient="auto" markerHeight="11" markerWidth="11" markerUnits="userSpaceOnUse" refY="5.2" refX="-1" viewBox="0 0 11 11" class="marker cross flowchart" id="svg_flowchart-crossStart"><path style="stroke-width: 2; stroke-dasharray: 1, 0;" class="arrowMarkerPath" d="M 1,1 l 9,9 M 10,1 l -9,9"></path></marker><g class="root"><g class="clusters"></g><g class="edgePaths"><path marker-end="url(#svg_flowchart-pointEnd)" style="fill:none;" class="edge-thickness-normal edge-pattern-solid flowchart-link LS-Q LE-P" id="L-Q-P-0" d="M69,34L69,38.167C69,42.333,69,50.667,69,58.117C69,65.567,69,72.133,69,75.417L69,78.7"></path><path marker-end="url(#svg_flowchart-pointEnd)" style="fill:none;" class="edge-thickness-normal edge-pattern-solid flowchart-link LS-P LE-V" id="L-P-V-0" d="M69,139L69,143.167C69,147.333,69,155.667,69.066,163.2C69.132,170.734,69.264,177.467,69.33,180.834L69.396,184.201"></path><path marker-end="url(#svg_flowchart-pointEnd)" style="fill:none;" class="edge-thickness-normal edge-pattern-solid flowchart-link LS-V LE-DG" id="L-V-DG-0" d="M89.664,282.336L94.637,291.363C99.61,300.39,109.555,318.445,114.527,332.339C119.5,346.233,119.5,355.967,119.5,360.833L119.5,365.7"></path><path marker-end="url(#svg_flowchart-pointEnd)" style="fill:none;" class="edge-thickness-normal edge-pattern-solid flowchart-link LS-V LE-G" id="L-V-G-0" d="M49.336,282.336L44.196,291.363C39.057,300.39,28.779,318.445,23.639,336.223C18.5,354,18.5,371.5,18.5,387.417C18.5,403.333,18.5,417.667,22.831,428.435C27.162,439.204,35.823,446.407,40.154,450.009L44.485,453.611"></path><path marker-end="url(#svg_flowchart-pointEnd)" style="fill:none;" class="edge-thickness-normal edge-pattern-solid flowchart-link LS-DG LE-G" id="L-DG-G-0" d="M119.5,407L119.5,411.167C119.5,415.333,119.5,423.667,115.169,431.435C110.838,439.204,102.177,446.407,97.846,450.009L93.515,453.611"></path><path marker-end="url(#svg_flowchart-pointEnd)" style="fill:none;" class="edge-thickness-normal edge-pattern-solid flowchart-link LS-G LE-RT" id="L-G-RT-0" d="M69,491L69,495.167C69,499.333,69,507.667,69,515.117C69,522.567,69,529.133,69,532.417L69,535.7"></path><path marker-end="url(#svg_flowchart-pointEnd)" style="fill:none;" class="edge-thickness-normal edge-pattern-solid flowchart-link LS-RT LE-L1" id="L-RT-L1-0" d="M69,596L69,600.167C69,604.333,69,612.667,69,620.117C69,627.567,69,634.133,69,637.417L69,640.7"></path><path marker-end="url(#svg_flowchart-pointEnd)" style="fill:none;" class="edge-thickness-normal edge-pattern-solid flowchart-link LS-L1 LE-L2" id="L-L1-L2-0" d="M69,682L69,686.167C69,690.333,69,698.667,69,706.117C69,713.567,69,720.133,69,723.417L69,726.7"></path><path marker-end="url(#svg_flowchart-pointEnd)" style="fill:none;" class="edge-thickness-normal edge-pattern-solid flowchart-link LS-L2 LE-L3" id="L-L2-L3-0" d="M69,768L69,772.167C69,776.333,69,784.667,69,792.117C69,799.567,69,806.133,69,809.417L69,812.7"></path><path marker-end="url(#svg_flowchart-pointEnd)" style="fill:none;" class="edge-thickness-normal edge-pattern-solid flowchart-link LS-L3 LE-GEN" id="L-L3-GEN-0" d="M69,854L69,858.167C69,862.333,69,870.667,69,878.117C69,885.567,69,892.133,69,895.417L69,898.7"></path><path marker-end="url(#svg_flowchart-pointEnd)" style="fill:none;" class="edge-thickness-normal edge-pattern-solid flowchart-link LS-GEN LE-A" id="L-GEN-A-0" d="M69,959L69,963.167C69,967.333,69,975.667,69,983.117C69,990.567,69,997.133,69,1000.417L69,1003.7"></path></g><g class="edgeLabels"><g class="edgeLabel"><g transform="translate(0, 0)" class="label"><foreignObject height="0" width="0"><div style="display: inline-block; white-space: nowrap;" xmlns="http://www.w3.org/1999/xhtml"><span class="edgeLabel"></span></div></foreignObject></g></g><g class="edgeLabel"><g transform="translate(0, 0)" class="label"><foreignObject height="0" width="0"><div style="display: inline-block; white-space: nowrap;" xmlns="http://www.w3.org/1999/xhtml"><span class="edgeLabel"></span></div></foreignObject></g></g><g transform="translate(119.5, 336.5)" class="edgeLabel"><g transform="translate(-25.5, -9.5)" class="label"><foreignObject height="19" width="51"><div style="display: inline-block; white-space: nowrap;" xmlns="http://www.w3.org/1999/xhtml"><span class="edgeLabel">invalid</span></div></foreignObject></g></g><g transform="translate(18.5, 389)" class="edgeLabel"><g transform="translate(-18.5, -9.5)" class="label"><foreignObject height="19" width="37"><div style="display: inline-block; white-space: nowrap;" xmlns="http://www.w3.org/1999/xhtml"><span class="edgeLabel">valid</span></div></foreignObject></g></g><g class="edgeLabel"><g transform="translate(0, 0)" class="label"><foreignObject height="0" width="0"><div style="display: inline-block; white-space: nowrap;" xmlns="http://www.w3.org/1999/xhtml"><span class="edgeLabel"></span></div></foreignObject></g></g><g class="edgeLabel"><g transform="translate(0, 0)" class="label"><foreignObject height="0" width="0"><div style="display: inline-block; white-space: nowrap;" xmlns="http://www.w3.org/1999/xhtml"><span class="edgeLabel"></span></div></foreignObject></g></g><g class="edgeLabel"><g transform="translate(0, 0)" class="label"><foreignObject height="0" width="0"><div style="display: inline-block; white-space: nowrap;" xmlns="http://www.w3.org/1999/xhtml"><span class="edgeLabel"></span></div></foreignObject></g></g><g class="edgeLabel"><g transform="translate(0, 0)" class="label"><foreignObject height="0" width="0"><div style="display: inline-block; white-space: nowrap;" xmlns="http://www.w3.org/1999/xhtml"><span class="edgeLabel"></span></div></foreignObject></g></g><g class="edgeLabel"><g transform="translate(0, 0)" class="label"><foreignObject height="0" width="0"><div style="display: inline-block; white-space: nowrap;" xmlns="http://www.w3.org/1999/xhtml"><span class="edgeLabel"></span></div></foreignObject></g></g><g class="edgeLabel"><g transform="translate(0, 0)" class="label"><foreignObject height="0" width="0"><div style="display: inline-block; white-space: nowrap;" xmlns="http://www.w3.org/1999/xhtml"><span class="edgeLabel"></span></div></foreignObject></g></g><g class="edgeLabel"><g transform="translate(0, 0)" class="label"><foreignObject height="0" width="0"><div style="display: inline-block; white-space: nowrap;" xmlns="http://www.w3.org/1999/xhtml"><span class="edgeLabel"></span></div></foreignObject></g></g></g><g class="nodes"><g transform="translate(69, 17)" data-id="Q" data-node="true" id="flowchart-Q-0" class="node default default flowchart-label"><rect height="34" width="64" y="-17" x="-32" ry="0" rx="0" style="" class="basic label-container"></rect><g transform="translate(-24.5, -9.5)" style="" class="label"><rect></rect><foreignObject height="19" width="49"><div style="display: inline-block; white-space: nowrap;" xmlns="http://www.w3.org/1999/xhtml"><span class="nodeLabel">Query</span></div></foreignObject></g></g><g transform="translate(69, 111.5)" data-id="P" data-node="true" id="flowchart-P-1" class="node default default flowchart-label"><rect height="55" width="113" y="-27.5" x="-56.5" ry="0" rx="0" style="fill:#fff4e6;stroke:#f5a623;" class="basic label-container"></rect><g transform="translate(-49, -20)" style="" class="label"><rect></rect><foreignObject height="40" width="98"><div style="display: inline-block; white-space: nowrap;" xmlns="http://www.w3.org/1999/xhtml"><span class="nodeLabel">Planner LLM<br/>一次成图</span></div></foreignObject></g></g><g transform="translate(69, 245.5)" data-id="V" data-node="true" id="flowchart-V-3" class="node default default flowchart-label"><polygon style="" transform="translate(-56.5,56.5)" class="label-container" points="56.5,0 113,-56.5 56.5,-113 0,-56.5"></polygon><g transform="translate(-32, -9.5)" style="" class="label"><rect></rect><foreignObject height="19" width="64"><div style="display: inline-block; white-space: nowrap;" xmlns="http://www.w3.org/1999/xhtml"><span class="nodeLabel">Validate</span></div></foreignObject></g></g><g transform="translate(119.5, 389)" data-id="DG" data-node="true" id="flowchart-DG-5" class="node default default flowchart-label"><rect height="36" width="95" y="-18" x="-47.5" ry="0" rx="0" style="" class="basic label-container"></rect><g transform="translate(-40, -10.5)" style="" class="label"><rect></rect><foreignObject height="21" width="80"><div style="display: inline-block; white-space: nowrap;" xmlns="http://www.w3.org/1999/xhtml"><span class="nodeLabel">降级全并行</span></div></foreignObject></g></g><g transform="translate(69, 474)" data-id="G" data-node="true" id="flowchart-G-7" class="node default default flowchart-label"><rect height="34" width="98" y="-17" x="-49" ry="0" rx="0" style="" class="basic label-container"></rect><g transform="translate(-41.5, -9.5)" style="" class="label"><rect></rect><foreignObject height="19" width="83"><div style="display: inline-block; white-space: nowrap;" xmlns="http://www.w3.org/1999/xhtml"><span class="nodeLabel">TaskGraph</span></div></foreignObject></g></g><g transform="translate(69, 568.5)" data-id="RT" data-node="true" id="flowchart-RT-11" class="node default default flowchart-label"><rect height="55" width="130" y="-27.5" x="-65" ry="0" rx="0" style="fill:#e8f4ff;stroke:#4a90e2;" class="basic label-container"></rect><g transform="translate(-57.5, -20)" style="" class="label"><rect></rect><foreignObject height="40" width="115"><div style="display: inline-block; white-space: nowrap;" xmlns="http://www.w3.org/1999/xhtml"><span class="nodeLabel">GraphRuntime<br/>拓扑分层并行</span></div></foreignObject></g></g><g transform="translate(69, 664)" data-id="L1" data-node="true" id="flowchart-L1-13" class="node default default flowchart-label"><rect height="36" width="109" y="-18" x="-54.5" ry="0" rx="0" style="" class="basic label-container"></rect><g transform="translate(-47, -10.5)" style="" class="label"><rect></rect><foreignObject height="21" width="94"><div style="display: inline-block; white-space: nowrap;" xmlns="http://www.w3.org/1999/xhtml"><span class="nodeLabel">Level 0 并行</span></div></foreignObject></g></g><g transform="translate(69, 750)" data-id="L2" data-node="true" id="flowchart-L2-15" class="node default default flowchart-label"><rect height="36" width="109" y="-18" x="-54.5" ry="0" rx="0" style="" class="basic label-container"></rect><g transform="translate(-47, -10.5)" style="" class="label"><rect></rect><foreignObject height="21" width="94"><div style="display: inline-block; white-space: nowrap;" xmlns="http://www.w3.org/1999/xhtml"><span class="nodeLabel">Level 1 并行</span></div></foreignObject></g></g><g transform="translate(69, 836)" data-id="L3" data-node="true" id="flowchart-L3-17" class="node default default flowchart-label"><rect height="36" width="111" y="-18" x="-55.5" ry="0" rx="0" style="" class="basic label-container"></rect><g transform="translate(-48, -10.5)" style="" class="label"><rect></rect><foreignObject height="21" width="96"><div style="display: inline-block; white-space: nowrap;" xmlns="http://www.w3.org/1999/xhtml"><span class="nodeLabel">Level N 并行</span></div></foreignObject></g></g><g transform="translate(69, 931.5)" data-id="GEN" data-node="true" id="flowchart-GEN-19" class="node default default flowchart-label"><rect height="55" width="134" y="-27.5" x="-67" ry="0" rx="0" style="fill:#fff4e6;stroke:#f5a623;" class="basic label-container"></rect><g transform="translate(-59.5, -20)" style="" class="label"><rect></rect><foreignObject height="40" width="119"><div style="display: inline-block; white-space: nowrap;" xmlns="http://www.w3.org/1999/xhtml"><span class="nodeLabel">Generator LLM<br/>合成答案</span></div></foreignObject></g></g><g transform="translate(69, 1026)" data-id="A" data-node="true" id="flowchart-A-21" class="node default default flowchart-label"><rect height="34" width="74" y="-17" x="-37" ry="0" rx="0" style="" class="basic label-container"></rect><g transform="translate(-29.5, -9.5)" style="" class="label"><rect></rect><foreignObject height="19" width="59"><div style="display: inline-block; white-space: nowrap;" xmlns="http://www.w3.org/1999/xhtml"><span class="nodeLabel">Answer</span></div></foreignObject></g></g></g></g></g></svg>