<svg aria-roledescription="flowchart-v2" role="graphics-document document" viewBox="-8 -8 2416.25 1136" style="max-width: 2416.25px;" xmlns="http://www.w3.org/2000/svg" width="2416.25" id="svg" xmlns:xlink="http://www.w3.org/1999/xlink" height="1136"><style>#svg{font-family:"trebuchet ms",verdana,arial,sans-serif;font-size:16px;fill:#333;}#svg .error-icon{fill:#552222;}#svg .error-text{fill:#552222;stroke:#552222;}#svg .edge-thickness-normal{stroke-width:2px;}#svg .edge-thickness-thick{stroke-width:3.5px;}#svg .edge-pattern-solid{stroke-dasharray:0;}#svg .edge-pattern-dashed{stroke-dasharray:3;}#svg .edge-pattern-dotted{stroke-dasharray:2;}#svg .marker{fill:#333333;stroke:#333333;}#svg .marker.cross{stroke:#333333;}#svg svg{font-family:"trebuchet ms",verdana,arial,sans-serif;font-size:16px;}#svg .label{font-family:"trebuchet ms",verdana,arial,sans-serif;color:#333;}#svg .cluster-label text{fill:#333;}#svg .cluster-label span,#svg p{color:#333;}#svg .label text,#svg span,#svg p{fill:#333;color:#333;}#svg .node rect,#svg .node circle,#svg .node ellipse,#svg .node polygon,#svg .node path{fill:#ECECFF;stroke:#9370DB;stroke-width:1px;}#svg .flowchart-label text{text-anchor:middle;}#svg .node .katex path{fill:#000;stroke:#000;stroke-width:1px;}#svg .node .label{text-align:center;}#svg .node.clickable{cursor:pointer;}#svg .arrowheadPath{fill:#333333;}#svg .edgePath .path{stroke:#333333;stroke-width:2.0px;}#svg .flowchart-link{stroke:#333333;fill:none;}#svg .edgeLabel{background-color:#e8e8e8;text-align:center;}#svg .edgeLabel rect{opacity:0.5;background-color:#e8e8e8;fill:#e8e8e8;}#svg .labelBkg{background-color:rgba(232, 232, 232, 0.5);}#svg .cluster rect{fill:#ffffde;stroke:#aaaa33;stroke-width:1px;}#svg .cluster text{fill:#333;}#svg .cluster span,#svg p{color:#333;}#svg div.mermaidTooltip{position:absolute;text-align:center;max-width:200px;padding:2px;font-family:"trebuchet ms",verdana,arial,sans-serif;font-size:12px;background:hsl(80, 100%, 96.2745098039%);border:1px solid #aaaa33;border-radius:2px;pointer-events:none;z-index:100;}#svg .flowchartTitleText{text-anchor:middle;font-size:18px;fill:#333;}#svg .today{display:none;}#svg .label foreignObject{overflow:visible;}#svg :root{--mermaid-font-family:"trebuchet ms",verdana,arial,sans-serif;}</style><g><marker orient="auto" markerHeight="12" markerWidth="12" markerUnits="userSpaceOnUse" refY="5" refX="6" viewBox="0 0 10 10" class="marker flowchart" id="svg_flowchart-pointEnd"><path style="stroke-width: 1; stroke-dasharray: 1, 0;" class="arrowMarkerPath" d="M 0 0 L 10 5 L 0 10 z"></path></marker><marker orient="auto" markerHeight="12" markerWidth="12" markerUnits="userSpaceOnUse" refY="5" refX="4.5" viewBox="0 0 10 10" class="marker flowchart" id="svg_flowchart-pointStart"><path style="stroke-width: 1; stroke-dasharray: 1, 0;" class="arrowMarkerPath" d="M 0 5 L 10 10 L 10 0 z"></path></marker><marker orient="auto" markerHeight="11" markerWidth="11" markerUnits="userSpaceOnUse" refY="5" refX="11" viewBox="0 0 10 10" class="marker flowchart" id="svg_flowchart-circleEnd"><circle style="stroke-width: 1; stroke-dasharray: 1, 0;" class="arrowMarkerPath" r="5" cy="5" cx="5"></circle></marker><marker orient="auto" markerHeight="11" markerWidth="11" markerUnits="userSpaceOnUse" refY="5" refX="-1" viewBox="0 0 10 10" class="marker flowchart" id="svg_flowchart-circleStart"><circle style="stroke-width: 1; stroke-dasharray: 1, 0;" class="arrowMarkerPath" r="5" cy="5" cx="5"></circle></marker><marker orient="auto" markerHeight="11" markerWidth="11" markerUnits="userSpaceOnUse" refY="5.2" refX="12" viewBox="0 0 11 11" class="marker cross flowchart" id="svg_flowchart-crossEnd"><path style="stroke-width: 2; stroke-dasharray: 1, 0;" class="arrowMarkerPath" d="M 1,1 l 9,9 M 10,1 l -9,9"></path></marker><marker orient="auto" markerHeight="11" markerWidth="11" markerUnits="userSpaceOnUse" refY="5.2" refX="-1" viewBox="0 0 11 11" class="marker cross flowchart" id="svg_flowchart-crossStart"><path style="stroke-width: 2; stroke-dasharray: 1, 0;" class="arrowMarkerPath" d="M 1,1 l 9,9 M 10,1 l -9,9"></path></marker><g class="root"><g class="clusters"><g id="Infra" class="cluster default flowchart-label"><rect height="105" width="2009.25" y="1015" x="10" ry="0" rx="0" style=""></rect><g transform="translate(905.125, 1015)" class="cluster-label"><foreignObject height="21" width="219"><div style="display: inline-block; white-space: nowrap;" xmlns="http://www.w3.org/1999/xhtml"><span class="nodeLabel">基础设施 (全部可选, 优雅降级)</span></div></foreignObject></g></g><g id="Harness" class="cluster default flowchart-label"><rect height="502" width="149" y="463" x="0" ry="0" rx="0" style=""></rect><g transform="translate(7, 463)" class="cluster-label"><foreignObject height="21" width="135"><div style="display: inline-block; white-space: nowrap;" xmlns="http://www.w3.org/1999/xhtml"><span class="nodeLabel">Stage 6: 稳定执行</span></div></foreignObject></g></g><g id="Memory" class="cluster default flowchart-label"><rect height="349" width="620" y="463" x="169" ry="0" rx="0" style=""></rect><g transform="translate(411.5, 463)" class="cluster-label"><foreignObject height="21" width="135"><div style="display: inline-block; white-space: nowrap;" xmlns="http://www.w3.org/1999/xhtml"><span class="nodeLabel">Stage 5: 三层记忆</span></div></foreignObject></g></g><g id="Core" class="cluster default flowchart-label"><rect height="653" width="1325.25" y="312" x="1075" ry="0" rx="0" style=""></rect><g transform="translate(1705.625, 312)" class="cluster-label"><foreignObject height="21" width="64"><div style="display: inline-block; white-space: nowrap;" xmlns="http://www.w3.org/1999/xhtml"><span class="nodeLabel">核心能力</span></div></foreignObject></g></g><g id="Router" class="cluster default flowchart-label"><rect height="84" width="827.5" y="157" x="1567" ry="0" rx="0" style=""></rect><g transform="translate(1940.75, 157)" class="cluster-label"><foreignObject height="21" width="80"><div style="display: inline-block; white-space: nowrap;" xmlns="http://www.w3.org/1999/xhtml"><span class="nodeLabel">智能路由层</span></div></foreignObject></g></g><g id="Frontend" class="cluster default flowchart-label"><rect height="107" width="713.25" y="0" x="1410.25" ry="0" rx="0" style=""></rect><g transform="translate(1700.375, 0)" class="cluster-label"><foreignObject height="21" width="133"><div style="display: inline-block; white-space: nowrap;" xmlns="http://www.w3.org/1999/xhtml"><span class="nodeLabel">前端 (index.html)</span></div></foreignObject></g></g></g><g class="edgePaths"><path marker-end="url(#svg_flowchart-pointEnd)" style="fill:none;" class="edge-thickness-normal edge-pattern-solid flowchart-link LS-CHAT LE-R" id="L-CHAT-R-0" d="M1476.75,71.5L1476.75,77.417C1476.75,83.333,1476.75,95.167,1476.75,105.25C1476.75,115.333,1476.75,123.667,1498.458,132C1520.167,140.333,1563.583,148.667,1633.332,158.994C1703.081,169.322,1799.162,181.644,1847.203,187.805L1895.243,193.966"></path><path marker-end="url(#svg_flowchart-pointEnd)" style="fill:none;" class="edge-thickness-normal edge-pattern-solid flowchart-link LS-CTRL LE-R" id="L-CTRL-R-0" d="M2001.5,82L2001.5,86.167C2001.5,90.333,2001.5,98.667,2001.5,107C2001.5,115.333,2001.5,123.667,2001.5,132C2001.5,140.333,2001.5,148.667,1995.602,156.531C1989.703,164.395,1977.906,171.79,1972.008,175.487L1966.11,179.185"></path><path marker-end="url(#svg_flowchart-pointEnd)" style="fill:none;" class="edge-thickness-normal edge-pattern-solid flowchart-link LS-R LE-CHAT_ENGINE" id="L-R-CHAT_ENGINE-0" d="M1968.5,202.386L2033.125,208.822C2097.75,215.257,2227,228.129,2291.625,240.481C2356.25,252.833,2356.25,264.667,2356.25,276.5C2356.25,288.333,2356.25,300.167,2356.25,314.833C2356.25,329.5,2356.25,347,2356.25,366.25C2356.25,385.5,2356.25,406.5,2356.25,422.917C2356.25,439.333,2356.25,451.167,2356.25,486.167C2356.25,521.167,2356.25,579.333,2356.25,637.5C2356.25,695.667,2356.25,753.833,2356.25,788.833C2356.25,823.833,2356.25,835.667,2202.257,851.286C2048.263,866.906,1740.276,886.311,1586.283,896.014L1432.29,905.717"></path><path marker-end="url(#svg_flowchart-pointEnd)" style="fill:none;" class="edge-thickness-normal edge-pattern-solid flowchart-link LS-R LE-RAG_ENGINE" id="L-R-RAG_ENGINE-0" d="M1935.208,216L1935.382,220.167C1935.556,224.333,1935.903,232.667,1936.076,242.75C1936.25,252.833,1936.25,264.667,1936.25,276.5C1936.25,288.333,1936.25,300.167,1916.798,310.073C1897.346,319.978,1858.441,327.957,1838.989,331.946L1819.537,335.935"></path><path marker-end="url(#svg_flowchart-pointEnd)" style="fill:none;" class="edge-thickness-normal edge-pattern-solid flowchart-link LS-R LE-TOOL_ENGINE" id="L-R-TOOL_ENGINE-0" d="M1900.5,211.609L1887.292,216.508C1874.083,221.406,1847.667,231.203,1834.458,242.018C1821.25,252.833,1821.25,264.667,1821.25,276.5C1821.25,288.333,1821.25,300.167,1846.544,310.126C1871.839,320.085,1922.428,328.17,1947.722,332.212L1973.016,336.255"></path><path marker-end="url(#svg_flowchart-pointEnd)" style="fill:none;" class="edge-thickness-normal edge-pattern-solid flowchart-link LS-R LE-REACT_ENGINE" id="L-R-REACT_ENGINE-0" d="M1900.5,203.36L1851.583,209.634C1802.667,215.907,1704.833,228.453,1655.917,240.643C1607,252.833,1607,264.667,1607,276.5C1607,288.333,1607,300.167,1576.914,310.97C1546.827,321.773,1486.654,331.546,1456.568,336.432L1426.481,341.319"></path><path marker-end="url(#svg_flowchart-pointEnd)" style="fill:none;" class="edge-thickness-normal edge-pattern-solid flowchart-link LS-RETRY LE-SNAP" id="L-RETRY-SNAP-0" d="M74.5,655.5L74.5,681.583C74.5,707.667,74.5,759.833,74.5,791.833C74.5,823.833,74.5,835.667,74.5,848.367C74.5,861.067,74.5,874.633,74.5,881.417L74.5,888.2"></path><path marker-end="url(#svg_flowchart-pointEnd)" style="fill:none;" class="edge-thickness-normal edge-pattern-solid flowchart-link LS-SNAP LE-PG" id="L-SNAP-PG-0" d="M74.5,929.5L74.5,935.417C74.5,941.333,74.5,953.167,74.5,963.25C74.5,973.333,74.5,981.667,74.5,990C74.5,998.333,74.5,1006.667,92.931,1015.082C111.362,1023.497,148.224,1031.994,166.655,1036.243L185.085,1040.492"></path><path marker-end="url(#svg_flowchart-pointEnd)" style="fill:none;stroke-width:2px;stroke-dasharray:3;" class="edge-thickness-normal edge-pattern-dotted flowchart-link LS-STM LE-CHAT_ENGINE" id="L-STM-CHAT_ENGINE-0" d="M259.547,666L273.247,690.333C286.948,714.667,314.349,763.333,483.008,793.583C651.667,823.833,961.583,835.667,1122.273,846.899C1282.963,858.132,1294.425,868.764,1300.156,874.08L1305.888,879.396"></path><path marker-end="url(#svg_flowchart-pointEnd)" style="fill:none;stroke-width:2px;stroke-dasharray:3;" class="edge-thickness-normal edge-pattern-dotted flowchart-link LS-LTM LE-CHAT_ENGINE" id="L-LTM-CHAT_ENGINE-0" d="M477.598,666L492.623,690.333C507.649,714.667,537.699,763.333,685.35,793.583C833,823.833,1098.25,835.667,1229.047,846.669C1359.845,857.671,1356.19,867.842,1354.362,872.927L1352.535,878.012"></path><path marker-end="url(#svg_flowchart-pointEnd)" style="fill:none;stroke-width:2px;stroke-dasharray:3;" class="edge-thickness-normal edge-pattern-dotted flowchart-link LS-PREF LE-CHAT_ENGINE" id="L-PREF-CHAT_ENGINE-0" d="M701.502,666L706.627,690.333C711.751,714.667,722.001,763.333,850.334,793.583C978.667,823.833,1225.083,835.667,1336.975,847.112C1448.866,858.558,1426.232,869.616,1414.915,875.145L1403.598,880.673"></path><path marker-end="url(#svg_flowchart-pointEnd)" style="fill:none;" class="edge-thickness-normal edge-pattern-solid flowchart-link LS-LTM LE-PG" id="L-LTM-PG-0" d="M464.287,666L467.948,690.333C471.608,714.667,478.929,763.333,482.59,793.583C486.25,823.833,486.25,835.667,486.25,852.25C486.25,868.833,486.25,890.167,486.25,909.75C486.25,929.333,486.25,947.167,486.25,960.25C486.25,973.333,486.25,981.667,486.25,990C486.25,998.333,486.25,1006.667,472.496,1014.758C458.743,1022.849,431.235,1030.697,417.481,1034.622L403.728,1038.546"></path><path marker-end="url(#svg_flowchart-pointEnd)" style="fill:none;" class="edge-thickness-normal edge-pattern-solid flowchart-link LS-LTM LE-NEO" id="L-LTM-NEO-0" d="M456.734,666L453.945,690.333C451.156,714.667,445.578,763.333,442.789,793.583C440,823.833,440,835.667,440,852.25C440,868.833,440,890.167,440,909.75C440,929.333,440,947.167,440,960.25C440,973.333,440,981.667,440,990C440,998.333,440,1006.667,510.496,1017.961C580.992,1029.255,721.985,1043.511,792.481,1050.638L862.977,1057.766"></path><path marker-end="url(#svg_flowchart-pointEnd)" style="fill:none;" class="edge-thickness-normal edge-pattern-solid flowchart-link LS-PREF LE-PG" id="L-PREF-PG-0" d="M677.902,666L662.877,690.333C647.851,714.667,617.801,763.333,602.775,793.583C587.75,823.833,587.75,835.667,587.75,852.25C587.75,868.833,587.75,890.167,587.75,909.75C587.75,929.333,587.75,947.167,587.75,960.25C587.75,973.333,587.75,981.667,587.75,990C587.75,998.333,587.75,1006.667,559.702,1015.991C531.654,1025.315,475.558,1035.631,447.511,1040.788L419.463,1045.946"></path><path marker-end="url(#svg_flowchart-pointEnd)" style="fill:none;" class="edge-thickness-normal edge-pattern-solid flowchart-link LS-RAG_ENGINE LE-MIL" id="L-RAG_ENGINE-MIL-0" d="M1781.738,392L1803.573,397.917C1825.409,403.833,1869.079,415.667,1890.915,427.5C1912.75,439.333,1912.75,451.167,1912.75,486.167C1912.75,521.167,1912.75,579.333,1912.75,637.5C1912.75,695.667,1912.75,753.833,1912.75,788.833C1912.75,823.833,1912.75,835.667,1912.75,852.25C1912.75,868.833,1912.75,890.167,1912.75,909.75C1912.75,929.333,1912.75,947.167,1912.75,960.25C1912.75,973.333,1912.75,981.667,1912.75,990C1912.75,998.333,1912.75,1006.667,1912.75,1014.117C1912.75,1021.567,1912.75,1028.133,1912.75,1031.417L1912.75,1034.7"></path><path marker-end="url(#svg_flowchart-pointEnd)" style="fill:none;" class="edge-thickness-normal edge-pattern-solid flowchart-link LS-RAG_ENGINE LE-ES" id="L-RAG_ENGINE-ES-0" d="M1701.639,392L1706.241,397.917C1710.843,403.833,1720.046,415.667,1724.648,427.5C1729.25,439.333,1729.25,451.167,1729.25,486.167C1729.25,521.167,1729.25,579.333,1729.25,637.5C1729.25,695.667,1729.25,753.833,1729.25,788.833C1729.25,823.833,1729.25,835.667,1729.25,852.25C1729.25,868.833,1729.25,890.167,1729.25,909.75C1729.25,929.333,1729.25,947.167,1729.25,960.25C1729.25,973.333,1729.25,981.667,1729.25,990C1729.25,998.333,1729.25,1006.667,1729.25,1014.117C1729.25,1021.567,1729.25,1028.133,1729.25,1031.417L1729.25,1034.7"></path><path marker-end="url(#svg_flowchart-pointEnd)" style="fill:none;" class="edge-thickness-normal edge-pattern-solid flowchart-link LS-RAG_ENGINE LE-NEO" id="L-RAG_ENGINE-NEO-0" d="M1618.812,392L1605.593,397.917C1592.374,403.833,1565.937,415.667,1552.719,427.5C1539.5,439.333,1539.5,451.167,1539.5,486.167C1539.5,521.167,1539.5,579.333,1539.5,637.5C1539.5,695.667,1539.5,753.833,1539.5,788.833C1539.5,823.833,1539.5,835.667,1539.5,852.25C1539.5,868.833,1539.5,890.167,1539.5,909.75C1539.5,929.333,1539.5,947.167,1539.5,960.25C1539.5,973.333,1539.5,981.667,1539.5,990C1539.5,998.333,1539.5,1006.667,1458.838,1018.131C1378.176,1029.596,1216.852,1044.193,1136.19,1051.491L1055.528,1058.789"></path><path marker-end="url(#svg_flowchart-pointEnd)" style="fill:none;" class="edge-thickness-normal edge-pattern-solid flowchart-link LS-CHAT_ENGINE LE-KAFKA" id="L-CHAT_ENGINE-KAFKA-0" d="M1340.5,940L1340.5,944.167C1340.5,948.333,1340.5,956.667,1340.5,965C1340.5,973.333,1340.5,981.667,1340.5,990C1340.5,998.333,1340.5,1006.667,1358.918,1017.411C1377.336,1028.156,1414.173,1041.312,1432.591,1047.89L1451.009,1054.467"></path><path marker-end="url(#svg_flowchart-pointEnd)" style="fill:none;" class="edge-thickness-normal edge-pattern-solid flowchart-link LS-SIDEBAR LE-RAG_ENGINE" id="L-SIDEBAR-RAG_ENGINE-0" d="M1645.25,82L1645.25,86.167C1645.25,90.333,1645.25,98.667,1645.25,107C1645.25,115.333,1645.25,123.667,1610.833,132C1576.417,140.333,1507.583,148.667,1473.167,159.833C1438.75,171,1438.75,185,1438.75,199C1438.75,213,1438.75,227,1438.75,239.917C1438.75,252.833,1438.75,264.667,1438.75,276.5C1438.75,288.333,1438.75,300.167,1457.053,310.062C1475.357,319.958,1511.964,327.916,1530.267,331.895L1548.571,335.874"></path><path marker-end="url(#svg_flowchart-pointEnd)" style="fill:none;" class="edge-thickness-normal edge-pattern-solid flowchart-link LS-CHAT_ENGINE LE-Memory" id="L-CHAT_ENGINE-Memory-0" d="M1286.617,883L1275.431,877.083C1264.245,871.167,1241.872,859.333,1066.027,847.532C890.182,835.73,560.864,823.96,396.206,818.074L231.547,812.189"></path><path marker-end="url(#svg_flowchart-pointEnd)" style="fill:none;" class="edge-thickness-normal edge-pattern-solid flowchart-link LS-RAG_ENGINE LE-Memory" id="L-RAG_ENGINE-Memory-0" d="M1603.643,392L1587.161,397.917C1570.679,403.833,1537.714,415.667,1521.232,427.5C1504.75,439.333,1504.75,451.167,1386.337,468.665C1267.925,486.164,1031.1,509.328,912.687,520.91L794.275,532.492"></path><path marker-end="url(#svg_flowchart-pointEnd)" style="fill:none;" class="edge-thickness-normal edge-pattern-solid flowchart-link LS-TOOL_ENGINE LE-Memory" id="L-TOOL_ENGINE-Memory-0" d="M2185.216,392L2192.847,397.917C2200.478,403.833,2215.739,415.667,2223.369,427.5C2231,439.333,2231,451.167,1991.55,464.46C1752.099,477.754,1273.198,492.509,1033.748,499.886L794.297,507.263"></path><path marker-end="url(#svg_flowchart-pointEnd)" style="fill:none;" class="edge-thickness-normal edge-pattern-solid flowchart-link LS-REACT_ENGINE LE-Memory" id="L-REACT_ENGINE-Memory-0" d="M1368.298,391L1387.706,397.083C1407.115,403.167,1445.933,415.333,1465.341,427.333C1484.75,439.333,1484.75,451.167,1369.67,468.849C1254.591,486.532,1024.432,510.064,909.352,521.83L794.273,533.596"></path><path marker-end="url(#svg_flowchart-pointEnd)" style="fill:none;" class="edge-thickness-normal edge-pattern-solid flowchart-link LS-REACT_ENGINE LE-Harness" id="L-REACT_ENGINE-Harness-0" d="M1300.155,391L1303.921,397.083C1307.687,403.167,1315.218,415.333,1318.984,427.333C1322.75,439.333,1322.75,451.167,1128.008,457.895C933.267,464.624,543.783,466.247,349.042,467.059L154.3,467.871"></path><path marker-end="url(#svg_flowchart-pointEnd)" style="fill:none;" class="edge-thickness-normal edge-pattern-solid flowchart-link LS-TOOL_ENGINE LE-Sandbox" id="L-TOOL_ENGINE-Sandbox-0" d="M2100.206,392L2089.547,397.917C2078.888,403.833,2057.569,415.667,2046.909,427.5C2036.25,439.333,2036.25,451.167,1871.081,483.184C1705.912,515.202,1375.573,567.404,1210.404,593.505L1045.235,619.606"></path><path marker-end="url(#svg_flowchart-pointEnd)" style="fill:none;" class="edge-thickness-normal edge-pattern-solid flowchart-link LS-REACT_ENGINE LE-Sandbox" id="L-REACT_ENGINE-Sandbox-0" d="M1236.429,391L1225.565,397.083C1214.702,403.167,1192.976,415.333,1182.113,427.333C1171.25,439.333,1171.25,451.167,1150.089,472.518C1128.927,493.869,1086.605,524.737,1065.443,540.171L1044.282,555.606"></path></g><g class="edgeLabels"><g class="edgeLabel"><g transform="translate(0, 0)" class="label"><foreignObject height="0" width="0"><div style="display: inline-block; white-space: nowrap;" xmlns="http://www.w3.org/1999/xhtml"><span class="edgeLabel"></span></div></foreignObject></g></g><g class="edgeLabel"><g transform="translate(0, 0)" class="label"><foreignObject height="0" width="0"><div style="display: inline-block; white-space: nowrap;" xmlns="http://www.w3.org/1999/xhtml"><span class="edgeLabel"></span></div></foreignObject></g></g><g transform="translate(2356.25, 427.5)" class="edgeLabel"><g transform="translate(-24, -10.5)" class="label"><foreignObject height="21" width="48"><div style="display: inline-block; white-space: nowrap;" xmlns="http://www.w3.org/1999/xhtml"><span class="edgeLabel">纯对话</span></div></foreignObject></g></g><g transform="translate(1936.25, 276.5)" class="edgeLabel"><g transform="translate(-32, -10.5)" class="label"><foreignObject height="21" width="64"><div style="display: inline-block; white-space: nowrap;" xmlns="http://www.w3.org/1999/xhtml"><span class="edgeLabel">知识检索</span></div></foreignObject></g></g><g transform="translate(1821.25, 276.5)" class="edgeLabel"><g transform="translate(-24, -10.5)" class="label"><foreignObject height="21" width="48"><div style="display: inline-block; white-space: nowrap;" xmlns="http://www.w3.org/1999/xhtml"><span class="edgeLabel">单工具</span></div></foreignObject></g></g><g transform="translate(1607, 276.5)" class="edgeLabel"><g transform="translate(-40, -10.5)" class="label"><foreignObject height="21" width="80"><div style="display: inline-block; white-space: nowrap;" xmlns="http://www.w3.org/1999/xhtml"><span class="edgeLabel">多工具编排</span></div></foreignObject></g></g><g class="edgeLabel"><g transform="translate(0, 0)" class="label"><foreignObject height="0" width="0"><div style="display: inline-block; white-space: nowrap;" xmlns="http://www.w3.org/1999/xhtml"><span class="edgeLabel"></span></div></foreignObject></g></g><g class="edgeLabel"><g transform="translate(0, 0)" class="label"><foreignObject height="0" width="0"><div style="display: inline-block; white-space: nowrap;" xmlns="http://www.w3.org/1999/xhtml"><span class="edgeLabel"></span></div></foreignObject></g></g><g transform="translate(1271.5, 847.5)" class="edgeLabel"><g transform="translate(-32, -10.5)" class="label"><foreignObject height="21" width="64"><div style="display: inline-block; white-space: nowrap;" xmlns="http://www.w3.org/1999/xhtml"><span class="edgeLabel">多轮历史</span></div></foreignObject></g></g><g transform="translate(1363.5, 847.5)" class="edgeLabel"><g transform="translate(-40, -10.5)" class="label"><foreignObject height="21" width="80"><div style="display: inline-block; white-space: nowrap;" xmlns="http://www.w3.org/1999/xhtml"><span class="edgeLabel">跨会话恢复</span></div></foreignObject></g></g><g transform="translate(1471.5, 847.5)" class="edgeLabel"><g transform="translate(-48, -10.5)" class="label"><foreignObject height="21" width="96"><div style="display: inline-block; white-space: nowrap;" xmlns="http://www.w3.org/1999/xhtml"><span class="edgeLabel">个性化上下文</span></div></foreignObject></g></g><g class="edgeLabel"><g transform="translate(0, 0)" class="label"><foreignObject height="0" width="0"><div style="display: inline-block; white-space: nowrap;" xmlns="http://www.w3.org/1999/xhtml"><span class="edgeLabel"></span></div></foreignObject></g></g><g class="edgeLabel"><g transform="translate(0, 0)" class="label"><foreignObject height="0" width="0"><div style="display: inline-block; white-space: nowrap;" xmlns="http://www.w3.org/1999/xhtml"><span class="edgeLabel"></span></div></foreignObject></g></g><g class="edgeLabel"><g transform="translate(0, 0)" class="label"><foreignObject height="0" width="0"><div style="display: inline-block; white-space: nowrap;" xmlns="http://www.w3.org/1999/xhtml"><span class="edgeLabel"></span></div></foreignObject></g></g><g class="edgeLabel"><g transform="translate(0, 0)" class="label"><foreignObject height="0" width="0"><div style="display: inline-block; white-space: nowrap;" xmlns="http://www.w3.org/1999/xhtml"><span class="edgeLabel"></span></div></foreignObject></g></g><g class="edgeLabel"><g transform="translate(0, 0)" class="label"><foreignObject height="0" width="0"><div style="display: inline-block; white-space: nowrap;" xmlns="http://www.w3.org/1999/xhtml"><span class="edgeLabel"></span></div></foreignObject></g></g><g class="edgeLabel"><g transform="translate(0, 0)" class="label"><foreignObject height="0" width="0"><div style="display: inline-block; white-space: nowrap;" xmlns="http://www.w3.org/1999/xhtml"><span class="edgeLabel"></span></div></foreignObject></g></g><g class="edgeLabel"><g transform="translate(0, 0)" class="label"><foreignObject height="0" width="0"><div style="display: inline-block; white-space: nowrap;" xmlns="http://www.w3.org/1999/xhtml"><span class="edgeLabel"></span></div></foreignObject></g></g><g transform="translate(1438.75, 199)" class="edgeLabel"><g transform="translate(-32, -10.5)" class="label"><foreignObject height="21" width="64"><div style="display: inline-block; white-space: nowrap;" xmlns="http://www.w3.org/1999/xhtml"><span class="edgeLabel">上传文档</span></div></foreignObject></g></g><g class="edgeLabel"><g transform="translate(0, 0)" class="label"><foreignObject height="0" width="0"><div style="display: inline-block; white-space: nowrap;" xmlns="http://www.w3.org/1999/xhtml"><span class="edgeLabel"></span></div></foreignObject></g></g><g class="edgeLabel"><g transform="translate(0, 0)" class="label"><foreignObject height="0" width="0"><div style="display: inline-block; white-space: nowrap;" xmlns="http://www.w3.org/1999/xhtml"><span class="edgeLabel"></span></div></foreignObject></g></g><g class="edgeLabel"><g transform="translate(0, 0)" class="label"><foreignObject height="0" width="0"><div style="display: inline-block; white-space: nowrap;" xmlns="http://www.w3.org/1999/xhtml"><span class="edgeLabel"></span></div></foreignObject></g></g><g class="edgeLabel"><g transform="translate(0, 0)" class="label"><foreignObject height="0" width="0"><div style="display: inline-block; white-space: nowrap;" xmlns="http://www.w3.org/1999/xhtml"><span class="edgeLabel"></span></div></foreignObject></g></g><g class="edgeLabel"><g transform="translate(0, 0)" class="label"><foreignObject height="0" width="0"><div style="display: inline-block; white-space: nowrap;" xmlns="http://www.w3.org/1999/xhtml"><span class="edgeLabel"></span></div></foreignObject></g></g><g class="edgeLabel"><g transform="translate(0, 0)" class="label"><foreignObject height="0" width="0"><div style="display: inline-block; white-space: nowrap;" xmlns="http://www.w3.org/1999/xhtml"><span class="edgeLabel"></span></div></foreignObject></g></g><g class="edgeLabel"><g transform="translate(0, 0)" class="label"><foreignObject height="0" width="0"><div style="display: inline-block; white-space: nowrap;" xmlns="http://www.w3.org/1999/xhtml"><span class="edgeLabel"></span></div></foreignObject></g></g></g><g class="nodes"><g transform="translate(302.25, 1067.5)" data-id="PG" data-node="true" id="flowchart-PG-16" class="node default default flowchart-label"><rect height="55" width="224" y="-27.5" x="-112" ry="0" rx="0" style="" class="basic label-container"></rect><g transform="translate(-104.5, -20)" style="" class="label"><rect></rect><foreignObject height="40" width="209"><div style="display: inline-block; white-space: nowrap;" xmlns="http://www.w3.org/1999/xhtml"><span class="nodeLabel">PostgreSQL<br/>偏好/LTM/RAG Chunk持久化</span></div></foreignObject></g></g><g transform="translate(1912.75, 1067.5)" data-id="MIL" data-node="true" id="flowchart-MIL-17" class="node default default flowchart-label"><rect height="55" width="143" y="-27.5" x="-71.5" ry="0" rx="0" style="" class="basic label-container"></rect><g transform="translate(-64, -20)" style="" class="label"><rect></rect><foreignObject height="40" width="128"><div style="display: inline-block; white-space: nowrap;" xmlns="http://www.w3.org/1999/xhtml"><span class="nodeLabel">Milvus<br/>语义向量近邻搜索</span></div></foreignObject></g></g><g transform="translate(1729.25, 1067.5)" data-id="ES" data-node="true" id="flowchart-ES-18" class="node default default flowchart-label"><rect height="55" width="124" y="-27.5" x="-62" ry="0" rx="0" style="" class="basic label-container"></rect><g transform="translate(-54.5, -20)" style="" class="label"><rect></rect><foreignObject height="40" width="109"><div style="display: inline-block; white-space: nowrap;" xmlns="http://www.w3.org/1999/xhtml"><span class="nodeLabel">Elasticsearch<br/>BM25全文检索</span></div></foreignObject></g></g><g transform="translate(959.25, 1067.5)" data-id="NEO" data-node="true" id="flowchart-NEO-19" class="node default default flowchart-label"><rect height="55" width="182" y="-27.5" x="-91" ry="0" rx="0" style="" class="basic label-container"></rect><g transform="translate(-83.5, -20)" style="" class="label"><rect></rect><foreignObject height="40" width="167"><div style="display: inline-block; white-space: nowrap;" xmlns="http://www.w3.org/1999/xhtml"><span class="nodeLabel">Neo4j<br/>知识图谱 + 图增强记忆</span></div></foreignObject></g></g><g transform="translate(1487.5, 1067.5)" data-id="KAFKA" data-node="true" id="flowchart-KAFKA-20" class="node default default flowchart-label"><rect height="55" width="63" y="-27.5" x="-31.5" ry="0" rx="0" style="" class="basic label-container"></rect><g transform="translate(-24, -20)" style="" class="label"><rect></rect><foreignObject height="40" width="48"><div style="display: inline-block; white-space: nowrap;" xmlns="http://www.w3.org/1999/xhtml"><span class="nodeLabel">Kafka<br/>事件流</span></div></foreignObject></g></g><g transform="translate(816.5, 480)" class="root"><g class="clusters"><g id="Sandbox" class="cluster default flowchart-label"><rect height="299" width="216" y="8" x="8" ry="0" rx="0" style=""></rect><g transform="translate(84, 8)" class="cluster-label"><foreignObject height="21" width="64"><div style="display: inline-block; white-space: nowrap;" xmlns="http://www.w3.org/1999/xhtml"><span class="nodeLabel">沙箱执行</span></div></foreignObject></g></g></g><g class="edgePaths"></g><g class="edgeLabels"></g><g class="nodes"><g transform="translate(116, 71.5)" data-id="DOCKER" data-node="true" id="flowchart-DOCKER-13" class="node default default flowchart-label"><rect height="57" width="166" y="-28.5" x="-83" ry="0" rx="0" style="" class="basic label-container"></rect><g transform="translate(-75.5, -21)" style="" class="label"><rect></rect><foreignObject height="42" width="151"><div style="display: inline-block; white-space: nowrap;" xmlns="http://www.w3.org/1999/xhtml"><span class="nodeLabel">Docker 后端<br/>资源隔离 + 安全限制</span></div></foreignObject></g></g><g transform="translate(116, 168)" data-id="LOCAL" data-node="true" id="flowchart-LOCAL-14" class="node default default flowchart-label"><rect height="36" width="94" y="-18" x="-47" ry="0" rx="0" style="" class="basic label-container"></rect><g transform="translate(-39.5, -10.5)" style="" class="label"><rect></rect><foreignObject height="21" width="79"><div style="display: inline-block; white-space: nowrap;" xmlns="http://www.w3.org/1999/xhtml"><span class="nodeLabel">Local 后端</span></div></foreignObject></g></g><g transform="translate(116, 254)" data-id="MOCK" data-node="true" id="flowchart-MOCK-15" class="node default default flowchart-label"><rect height="36" width="94" y="-18" x="-47" ry="0" rx="0" style="" class="basic label-container"></rect><g transform="translate(-39.5, -10.5)" style="" class="label"><rect></rect><foreignObject height="21" width="79"><div style="display: inline-block; white-space: nowrap;" xmlns="http://www.w3.org/1999/xhtml"><span class="nodeLabel">Mock 后端</span></div></foreignObject></g></g></g></g><g transform="translate(74.5, 637.5)" data-id="RETRY" data-node="true" id="flowchart-RETRY-11" class="node default default flowchart-label"><rect height="36" width="79" y="-18" x="-39.5" ry="0" rx="0" style="" class="basic label-container"></rect><g transform="translate(-32, -10.5)" style="" class="label"><rect></rect><foreignObject height="21" width="64"><div style="display: inline-block; white-space: nowrap;" xmlns="http://www.w3.org/1999/xhtml"><span class="nodeLabel">重试机制</span></div></foreignObject></g></g><g transform="translate(74.5, 911.5)" data-id="SNAP" data-node="true" id="flowchart-SNAP-12" class="node default default flowchart-label"><rect height="36" width="79" y="-18" x="-39.5" ry="0" rx="0" style="" class="basic label-container"></rect><g transform="translate(-32, -10.5)" style="" class="label"><rect></rect><foreignObject height="21" width="64"><div style="display: inline-block; white-space: nowrap;" xmlns="http://www.w3.org/1999/xhtml"><span class="nodeLabel">快照恢复</span></div></foreignObject></g></g><g transform="translate(243.5, 637.5)" data-id="STM" data-node="true" id="flowchart-STM-8" class="node default default flowchart-label"><rect height="57" width="79" y="-28.5" x="-39.5" ry="0" rx="0" style="" class="basic label-container"></rect><g transform="translate(-32, -21)" style="" class="label"><rect></rect><foreignObject height="42" width="64"><div style="display: inline-block; white-space: nowrap;" xmlns="http://www.w3.org/1999/xhtml"><span class="nodeLabel">短期记忆<br/>滑动窗口</span></div></foreignObject></g></g><g transform="translate(460, 637.5)" data-id="LTM" data-node="true" id="flowchart-LTM-9" class="node default default flowchart-label"><rect height="57" width="254" y="-28.5" x="-127" ry="0" rx="0" style="" class="basic label-container"></rect><g transform="translate(-119.5, -21)" style="" class="label"><rect></rect><foreignObject height="42" width="239"><div style="display: inline-block; white-space: nowrap;" xmlns="http://www.w3.org/1999/xhtml"><span class="nodeLabel">长期记忆<br/>Embedding语义 + Neo4j图关系</span></div></foreignObject></g></g><g transform="translate(695.5, 637.5)" data-id="PREF" data-node="true" id="flowchart-PREF-10" class="node default default flowchart-label"><rect height="57" width="117" y="-28.5" x="-58.5" ry="0" rx="0" style="" class="basic label-container"></rect><g transform="translate(-51, -21)" style="" class="label"><rect></rect><foreignObject height="42" width="102"><div style="display: inline-block; white-space: nowrap;" xmlns="http://www.w3.org/1999/xhtml"><span class="nodeLabel">用户偏好<br/>LLM NER提取</span></div></foreignObject></g></g><g transform="translate(1340.5, 911.5)" data-id="CHAT_ENGINE" data-node="true" id="flowchart-CHAT_ENGINE-4" class="node default default flowchart-label"><rect height="57" width="173" y="-28.5" x="-86.5" ry="0" rx="0" style="" class="basic label-container"></rect><g transform="translate(-79, -21)" style="" class="label"><rect></rect><foreignObject height="42" width="158"><div style="display: inline-block; white-space: nowrap;" xmlns="http://www.w3.org/1999/xhtml"><span class="nodeLabel">Stage 1: 多轮对话<br/>LLM + STM 历史注入</span></div></foreignObject></g></g><g transform="translate(1680.25, 364.5)" data-id="RAG_ENGINE" data-node="true" id="flowchart-RAG_ENGINE-5" class="node default default flowchart-label"><rect height="55" width="418" y="-27.5" x="-209" ry="0" rx="0" style="" class="basic label-container"></rect><g transform="translate(-201.5, -20)" style="" class="label"><rect></rect><foreignObject height="40" width="403"><div style="display: inline-block; white-space: nowrap;" xmlns="http://www.w3.org/1999/xhtml"><span class="nodeLabel">Stage 2: RAG<br/>Milvus + ES + Neo4j 三路检索 → RRF融合 → LLM合成</span></div></foreignObject></g></g><g transform="translate(2149.75, 364.5)" data-id="TOOL_ENGINE" data-node="true" id="flowchart-TOOL_ENGINE-6" class="node default default flowchart-label"><rect height="55" width="343" y="-27.5" x="-171.5" ry="0" rx="0" style="" class="basic label-container"></rect><g transform="translate(-164, -20)" style="" class="label"><rect></rect><foreignObject height="40" width="328"><div style="display: inline-block; white-space: nowrap;" xmlns="http://www.w3.org/1999/xhtml"><span class="nodeLabel">Stage 3: 工具调用<br/>time / weather / search / exec_command</span></div></foreignObject></g></g><g transform="translate(1283.75, 364.5)" data-id="REACT_ENGINE" data-node="true" id="flowchart-REACT_ENGINE-7" class="node default default flowchart-label"><rect height="53" width="275" y="-26.5" x="-137.5" ry="0" rx="0" style="" class="basic label-container"></rect><g transform="translate(-130, -19)" style="" class="label"><rect></rect><foreignObject height="38" width="260"><div style="display: inline-block; white-space: nowrap;" xmlns="http://www.w3.org/1999/xhtml"><span class="nodeLabel">Stage 4: ReAct<br/>Planner → Executor → Generator</span></div></foreignObject></g></g><g transform="translate(1934.5, 199)" data-id="R" data-node="true" id="flowchart-R-3" class="node default default flowchart-label"><rect height="34" width="68" y="-17" x="-34" ry="0" rx="0" style="" class="basic label-container"></rect><g transform="translate(-26.5, -9.5)" style="" class="label"><rect></rect><foreignObject height="19" width="53"><div style="display: inline-block; white-space: nowrap;" xmlns="http://www.w3.org/1999/xhtml"><span class="nodeLabel">Router</span></div></foreignObject></g></g><g transform="translate(1476.75, 53.5)" data-id="CHAT" data-node="true" id="flowchart-CHAT-0" class="node default default flowchart-label"><rect height="36" width="63" y="-18" x="-31.5" ry="0" rx="0" style="" class="basic label-container"></rect><g transform="translate(-24, -10.5)" style="" class="label"><rect></rect><foreignObject height="21" width="48"><div style="display: inline-block; white-space: nowrap;" xmlns="http://www.w3.org/1999/xhtml"><span class="nodeLabel">对话区</span></div></foreignObject></g></g><g transform="translate(1645.25, 53.5)" data-id="SIDEBAR" data-node="true" id="flowchart-SIDEBAR-1" class="node default default flowchart-label"><rect height="57" width="174" y="-28.5" x="-87" ry="0" rx="0" style="" class="basic label-container"></rect><g transform="translate(-79.5, -21)" style="" class="label"><rect></rect><foreignObject height="42" width="159"><div style="display: inline-block; white-space: nowrap;" xmlns="http://www.w3.org/1999/xhtml"><span class="nodeLabel">侧边栏<br/>知识库上传 / 近期对话</span></div></foreignObject></g></g><g transform="translate(2001.5, 53.5)" data-id="CTRL" data-node="true" id="flowchart-CTRL-2" class="node default default flowchart-label"><rect height="57" width="174" y="-28.5" x="-87" ry="0" rx="0" style="" class="basic label-container"></rect><g transform="translate(-79.5, -21)" style="" class="label"><rect></rect><foreignObject height="42" width="159"><div style="display: inline-block; white-space: nowrap;" xmlns="http://www.w3.org/1999/xhtml"><span class="nodeLabel">控制栏<br/>知识库开关 / 工具选择</span></div></foreignObject></g></g></g></g></g></svg>